<svg width="54" height="70" viewBox="0 0 54 70" fill="none" xmlns="http://www.w3.org/2000/svg">
<g clip-path="url(#clip0)">
<path d="M37.5272 10.4185L34.1143 48.7499L18.7734 53.0139L3.47462 48.7559L0.0653687 10.4185H37.5272Z" fill="#E44D26"/>
<path d="M18.7963 49.7546L31.1926 46.309L34.1091 13.5531H18.7963V49.7546Z" fill="#F16529"/>
<path d="M12.1618 22.9571H18.7963V18.2551H7.03644L7.1487 19.5165L8.30137 32.4738H18.7963V27.7719H12.5904L12.1618 22.9571Z" fill="#EBEBEB"/>
<path d="M13.2187 34.8248H8.51086L9.16791 42.2075L18.7747 44.8813L18.7963 44.8753V39.9833L18.7757 39.9888L13.5526 38.5748L13.2187 34.8248Z" fill="#EBEBEB"/>
<path d="M3.55084 0H5.93415V2.36077H8.11431V0H10.4977V7.149H8.11442V4.75509H5.93425V7.149H3.55095V0H3.55084Z" fill="black"/>
<path d="M13.6319 2.37071H11.5337V0H18.1145V2.37071H16.0154V7.149H13.632V2.37071H13.6319Z" fill="black"/>
<path d="M19.1589 0H21.644L23.1727 2.51195L24.6999 0H27.1859V7.149H24.8124V3.60556L23.1727 6.14743H23.1317L21.4909 3.60556V7.149H19.1589V0Z" fill="black"/>
<path d="M28.3721 0H30.7561V4.78595H34.1077V7.149H28.3721V0Z" fill="black"/>
<path d="M18.7801 32.4738H24.5551L24.0107 38.5718L18.7801 39.9873V44.879L28.3945 42.2075L28.465 41.4132L29.5671 29.0345L29.6815 27.7719H18.7801V32.4738Z" fill="white"/>
<path d="M18.7801 22.9456V22.9571H30.1083L30.2024 21.9002L30.416 19.5165L30.5282 18.2551H18.7801V22.9456Z" fill="white"/>
</g>
<g clip-path="url(#clip1)">
<path d="M35.6268 69.8755L21.3831 65.9291L18.209 30.3969H53.0873L49.9098 65.9235L35.6268 69.8755Z" fill="#264DE4"/>
<path d="M47.1895 63.6613L49.9049 33.3021H35.6481V66.8548L47.1895 63.6613Z" fill="#2965F1"/>
<path d="M25.4856 46.4806L25.8769 50.8384H35.6481V46.4806H25.4856Z" fill="#EBEBEB"/>
<path d="M24.6993 37.6601L25.0962 42.018H35.6481V37.6601H24.6993Z" fill="#EBEBEB"/>
<path d="M35.6481 57.7985L35.629 57.8035L30.7661 56.493L30.4553 53.0174H26.0721L26.6838 59.8599L35.628 62.3381L35.6481 62.3325V57.7985Z" fill="#EBEBEB"/>
<path d="M26.4174 20.7407H31.7058V22.948H28.6289V25.1552H31.7058V27.3624H26.4174V20.7407Z" fill="black"/>
<path d="M32.7635 20.7407H38.052V22.6601H34.9751V23.0439H38.052V27.4584H32.7635V25.4431H35.8405V25.0592H32.7635V20.7407Z" fill="black"/>
<path d="M39.1097 20.7407H44.3981V22.6601H41.3212V23.0439H44.3981V27.4584H39.1097V25.4431H42.1866V25.0592H39.1097V20.7407Z" fill="black"/>
<path d="M45.7827 46.4805L46.5709 37.6601H35.6331V42.018H41.7858L41.3884 46.4805H35.6331V50.8384H41.0098L40.503 56.4902L35.6331 57.8021V62.3359L44.5844 59.8599L44.6501 59.1236L45.6761 47.6508L45.7827 46.4805Z" fill="white"/>
</g>
<defs>
<clipPath id="clip0">
<rect width="37.5926" height="53.1481" fill="white"/>
</clipPath>
<clipPath id="clip1">
<rect width="35" height="49.2593" fill="white" transform="translate(18.1481 20.7407)"/>
</clipPath>
</defs>
</svg>
