<svg width="314" height="76" viewBox="0 0 314 76" fill="none" xmlns="http://www.w3.org/2000/svg">
<path d="M137.985 23.285L125.721 53H123.81L111.546 23.285H113.247C113.443 23.285 113.604 23.341 113.73 23.453C113.856 23.551 113.954 23.684 114.024 23.852L124.146 48.506C124.258 48.814 124.37 49.143 124.482 49.493C124.594 49.843 124.699 50.2 124.797 50.564C124.881 50.2 124.972 49.843 125.07 49.493C125.168 49.143 125.28 48.814 125.406 48.506L135.507 23.852C135.563 23.698 135.661 23.565 135.801 23.453C135.941 23.341 136.109 23.285 136.305 23.285H137.985ZM145.073 53H142.91V23.285H145.073V53ZM173.182 25.112H162.745V53H160.582V25.112H150.082V23.285H173.182V25.112ZM224.688 23.285L215.343 53H213.411L204.633 27.212C204.521 26.862 204.423 26.498 204.339 26.12C204.255 26.498 204.157 26.862 204.045 27.212L195.246 53H193.335L183.969 23.285H185.754C186.16 23.285 186.419 23.474 186.531 23.852L194.028 48.275C194.182 48.835 194.322 49.472 194.448 50.186C194.518 49.822 194.588 49.486 194.658 49.178C194.728 48.856 194.812 48.555 194.91 48.275L203.31 23.852C203.366 23.698 203.464 23.565 203.604 23.453C203.744 23.341 203.912 23.285 204.108 23.285H204.696C204.892 23.285 205.053 23.341 205.179 23.453C205.305 23.551 205.403 23.684 205.473 23.852L213.873 48.275C213.971 48.541 214.055 48.835 214.125 49.157C214.209 49.479 214.286 49.815 214.356 50.165C214.426 49.815 214.489 49.486 214.545 49.178C214.615 48.856 214.685 48.555 214.755 48.275L222.252 23.852C222.294 23.698 222.385 23.565 222.525 23.453C222.679 23.341 222.854 23.285 223.05 23.285H224.688ZM235.265 31.769C236.763 31.769 238.1 32.028 239.276 32.546C240.466 33.05 241.467 33.771 242.279 34.709C243.091 35.647 243.707 36.781 244.127 38.111C244.561 39.427 244.778 40.904 244.778 42.542C244.778 44.18 244.561 45.657 244.127 46.973C243.707 48.289 243.091 49.416 242.279 50.354C241.467 51.292 240.466 52.013 239.276 52.517C238.1 53.021 236.763 53.273 235.265 53.273C233.767 53.273 232.423 53.021 231.233 52.517C230.057 52.013 229.056 51.292 228.23 50.354C227.418 49.416 226.795 48.289 226.361 46.973C225.941 45.657 225.731 44.18 225.731 42.542C225.731 40.904 225.941 39.427 226.361 38.111C226.795 36.781 227.418 35.647 228.23 34.709C229.056 33.771 230.057 33.05 231.233 32.546C232.423 32.028 233.767 31.769 235.265 31.769ZM235.265 51.698C236.511 51.698 237.596 51.488 238.52 51.068C239.458 50.634 240.235 50.018 240.851 49.22C241.481 48.422 241.95 47.463 242.258 46.343C242.566 45.209 242.72 43.942 242.72 42.542C242.72 41.156 242.566 39.896 242.258 38.762C241.95 37.628 241.481 36.662 240.851 35.864C240.235 35.052 239.458 34.429 238.52 33.995C237.596 33.561 236.511 33.344 235.265 33.344C234.019 33.344 232.927 33.561 231.989 33.995C231.065 34.429 230.288 35.052 229.658 35.864C229.042 36.662 228.573 37.628 228.251 38.762C227.943 39.896 227.789 41.156 227.789 42.542C227.789 43.942 227.943 45.209 228.251 46.343C228.573 47.463 229.042 48.422 229.658 49.22C230.288 50.018 231.065 50.634 231.989 51.068C232.927 51.488 234.019 51.698 235.265 51.698ZM252.322 37.145C252.644 36.291 253.008 35.535 253.414 34.877C253.834 34.205 254.31 33.638 254.842 33.176C255.388 32.714 255.99 32.364 256.648 32.126C257.32 31.874 258.062 31.748 258.874 31.748C259.308 31.748 259.735 31.79 260.155 31.874C260.575 31.944 260.946 32.077 261.268 32.273L261.1 33.659C261.03 33.883 260.897 33.995 260.701 33.995C260.533 33.995 260.274 33.946 259.924 33.848C259.588 33.75 259.14 33.701 258.58 33.701C257.768 33.701 257.047 33.827 256.417 34.079C255.801 34.317 255.241 34.681 254.737 35.171C254.247 35.661 253.813 36.27 253.435 36.998C253.071 37.712 252.735 38.538 252.427 39.476V53H250.411V32.105H251.482C251.72 32.105 251.888 32.154 251.986 32.252C252.084 32.35 252.147 32.518 252.175 32.756L252.322 37.145ZM267.274 22.445V41.072H268.24C268.436 41.072 268.618 41.044 268.786 40.988C268.968 40.932 269.164 40.799 269.374 40.589L277.753 32.63C277.893 32.462 278.047 32.336 278.215 32.252C278.383 32.154 278.593 32.105 278.845 32.105H280.609L271.39 40.862C271.138 41.156 270.865 41.387 270.571 41.555C270.795 41.667 270.984 41.8 271.138 41.954C271.306 42.094 271.467 42.262 271.621 42.458L281.302 53H279.559C279.363 53 279.181 52.972 279.013 52.916C278.859 52.846 278.712 52.713 278.572 52.517L269.794 43.109C269.682 42.983 269.57 42.878 269.458 42.794C269.36 42.71 269.255 42.647 269.143 42.605C269.031 42.549 268.898 42.514 268.744 42.5C268.604 42.472 268.429 42.458 268.219 42.458H267.274V53H265.258V22.445H267.274ZM296.72 34.688C296.608 34.884 296.447 34.982 296.237 34.982C296.083 34.982 295.887 34.898 295.649 34.73C295.411 34.548 295.089 34.352 294.683 34.142C294.291 33.918 293.801 33.722 293.213 33.554C292.625 33.372 291.911 33.281 291.071 33.281C290.315 33.281 289.622 33.393 288.992 33.617C288.376 33.827 287.844 34.114 287.396 34.478C286.962 34.842 286.626 35.269 286.388 35.759C286.15 36.235 286.031 36.739 286.031 37.271C286.031 37.929 286.199 38.475 286.535 38.909C286.871 39.343 287.305 39.714 287.837 40.022C288.383 40.33 289.006 40.596 289.706 40.82C290.406 41.044 291.113 41.268 291.827 41.492C292.555 41.716 293.269 41.968 293.969 42.248C294.669 42.514 295.285 42.85 295.817 43.256C296.363 43.662 296.804 44.159 297.14 44.747C297.476 45.335 297.644 46.049 297.644 46.889C297.644 47.799 297.483 48.646 297.161 49.43C296.839 50.214 296.363 50.893 295.733 51.467C295.117 52.041 294.354 52.496 293.444 52.832C292.534 53.168 291.491 53.336 290.315 53.336C288.845 53.336 287.578 53.105 286.514 52.643C285.45 52.167 284.498 51.551 283.658 50.795L284.12 50.081C284.19 49.969 284.267 49.885 284.351 49.829C284.449 49.773 284.575 49.745 284.729 49.745C284.911 49.745 285.128 49.857 285.38 50.081C285.646 50.305 285.996 50.55 286.43 50.816C286.864 51.068 287.396 51.306 288.026 51.53C288.67 51.754 289.461 51.866 290.399 51.866C291.281 51.866 292.058 51.747 292.73 51.509C293.402 51.257 293.962 50.921 294.41 50.501C294.858 50.081 295.194 49.591 295.418 49.031C295.656 48.457 295.775 47.855 295.775 47.225C295.775 46.525 295.607 45.944 295.271 45.482C294.935 45.02 294.494 44.628 293.948 44.306C293.402 43.984 292.779 43.711 292.079 43.487C291.393 43.263 290.686 43.039 289.958 42.815C289.23 42.591 288.516 42.346 287.816 42.08C287.13 41.814 286.514 41.478 285.968 41.072C285.422 40.666 284.981 40.176 284.645 39.602C284.309 39.014 284.141 38.286 284.141 37.418C284.141 36.676 284.302 35.962 284.624 35.276C284.946 34.59 285.401 33.988 285.989 33.47C286.591 32.952 287.319 32.539 288.173 32.231C289.027 31.923 289.986 31.769 291.05 31.769C292.324 31.769 293.451 31.951 294.431 32.315C295.425 32.679 296.328 33.239 297.14 33.995L296.72 34.688Z" fill="#0C4579"/>
<path d="M137.985 23.285L138.909 23.6665L139.48 22.285H137.985V23.285ZM125.721 53V54H126.39L126.645 53.3815L125.721 53ZM123.81 53L122.886 53.3815L123.141 54H123.81V53ZM111.546 23.285V22.285H110.051L110.622 23.6665L111.546 23.285ZM113.73 23.453L113.066 24.2004L113.09 24.2222L113.116 24.2424L113.73 23.453ZM114.024 23.852L114.949 23.4722L114.947 23.4674L114.024 23.852ZM124.146 48.506L125.086 48.1643L125.079 48.1451L125.071 48.1262L124.146 48.506ZM124.482 49.493L125.434 49.1882L124.482 49.493ZM124.797 50.564L123.831 50.824L125.771 50.7889L124.797 50.564ZM125.07 49.493L124.107 49.2234H124.107L125.07 49.493ZM125.406 48.506L124.481 48.1269L124.48 48.1274L125.406 48.506ZM135.507 23.852L136.432 24.2311L136.44 24.2126L136.447 24.1937L135.507 23.852ZM135.801 23.453L136.426 24.2339L136.426 24.2339L135.801 23.453ZM137.061 22.9035L124.797 52.6185L126.645 53.3815L138.909 23.6665L137.061 22.9035ZM125.721 52H123.81V54H125.721V52ZM124.734 52.6185L112.47 22.9035L110.622 23.6665L122.886 53.3815L124.734 52.6185ZM111.546 24.285H113.247V22.285H111.546V24.285ZM113.247 24.285C113.25 24.285 113.226 24.2853 113.186 24.2715C113.144 24.2569 113.102 24.2325 113.066 24.2004L114.394 22.7056C114.056 22.4048 113.646 22.285 113.247 22.285V24.285ZM113.116 24.2424C113.11 24.238 113.106 24.2335 113.101 24.2292C113.097 24.2249 113.094 24.2215 113.093 24.2194C113.09 24.2152 113.094 24.2192 113.101 24.2366L114.947 23.4674C114.82 23.1627 114.624 22.8817 114.344 22.6636L113.116 24.2424ZM113.099 24.2318L123.221 48.8858L125.071 48.1262L114.949 23.4722L113.099 24.2318ZM123.206 48.8477C123.313 49.1421 123.421 49.4587 123.53 49.7978L125.434 49.1882C125.319 48.8273 125.203 48.4859 125.086 48.1643L123.206 48.8477ZM123.53 49.7978C123.637 50.1326 123.737 50.4746 123.831 50.824L125.763 50.304C125.661 49.9254 125.551 49.5534 125.434 49.1882L123.53 49.7978ZM125.771 50.7889C125.852 50.4395 125.939 50.0974 126.033 49.7626L124.107 49.2234C124.005 49.5886 123.91 49.9605 123.823 50.3391L125.771 50.7889ZM126.033 49.7626C126.122 49.4463 126.221 49.154 126.332 48.8846L124.48 48.1274C124.339 48.474 124.214 48.8397 124.107 49.2234L126.033 49.7626ZM126.331 48.8851L136.432 24.2311L134.582 23.4729L124.481 48.1269L126.331 48.8851ZM136.447 24.1937C136.442 24.2073 136.435 24.2201 136.428 24.2299C136.421 24.2393 136.418 24.24 136.426 24.2339L135.176 22.6721C134.907 22.8876 134.692 23.1677 134.567 23.5103L136.447 24.1937ZM136.426 24.2339C136.405 24.2506 136.378 24.2659 136.348 24.2757C136.32 24.2851 136.303 24.285 136.305 24.285V22.285C135.904 22.285 135.51 22.4048 135.176 22.6721L136.426 24.2339ZM136.305 24.285H137.985V22.285H136.305V24.285ZM145.073 53V54H146.073V53H145.073ZM142.91 53H141.91V54H142.91V53ZM142.91 23.285V22.285H141.91V23.285H142.91ZM145.073 23.285H146.073V22.285H145.073V23.285ZM145.073 52H142.91V54H145.073V52ZM143.91 53V23.285H141.91V53H143.91ZM142.91 24.285H145.073V22.285H142.91V24.285ZM144.073 23.285V53H146.073V23.285H144.073ZM173.182 25.112V26.112H174.182V25.112H173.182ZM162.745 25.112V24.112H161.745V25.112H162.745ZM162.745 53V54H163.745V53H162.745ZM160.582 53H159.582V54H160.582V53ZM160.582 25.112H161.582V24.112H160.582V25.112ZM150.082 25.112H149.082V26.112H150.082V25.112ZM150.082 23.285V22.285H149.082V23.285H150.082ZM173.182 23.285H174.182V22.285H173.182V23.285ZM173.182 24.112H162.745V26.112H173.182V24.112ZM161.745 25.112V53H163.745V25.112H161.745ZM162.745 52H160.582V54H162.745V52ZM161.582 53V25.112H159.582V53H161.582ZM160.582 24.112H150.082V26.112H160.582V24.112ZM151.082 25.112V23.285H149.082V25.112H151.082ZM150.082 24.285H173.182V22.285H150.082V24.285ZM172.182 23.285V25.112H174.182V23.285H172.182ZM224.688 23.285L225.642 23.585L226.051 22.285H224.688V23.285ZM215.343 53V54H216.077L216.297 53.3L215.343 53ZM213.411 53L212.465 53.3222L212.695 54H213.411V53ZM204.633 27.212L203.681 27.5168L203.684 27.5255L203.687 27.5342L204.633 27.212ZM204.339 26.12L205.316 25.9031L203.363 25.9031L204.339 26.12ZM204.045 27.212L204.992 27.5349L204.995 27.5259L204.998 27.5168L204.045 27.212ZM195.246 53V54H195.962L196.193 53.3229L195.246 53ZM193.335 53L192.382 53.3006L192.602 54H193.335V53ZM183.969 23.285V22.285H182.606L183.016 23.5856L183.969 23.285ZM186.531 23.852L185.573 24.1361L185.575 24.1455L186.531 23.852ZM194.028 48.275L194.993 48.0098L194.989 47.9956L194.984 47.9815L194.028 48.275ZM194.448 50.186L193.464 50.3598L195.43 50.3748L194.448 50.186ZM194.658 49.178L195.634 49.3996L195.636 49.3904L194.658 49.178ZM194.91 48.275L195.854 48.6054L195.856 48.6002L194.91 48.275ZM203.31 23.852L202.371 23.5103L202.368 23.5185L202.365 23.5268L203.31 23.852ZM205.179 23.453L204.515 24.2004L204.54 24.2222L204.565 24.2424L205.179 23.453ZM205.473 23.852L206.419 23.5268L206.409 23.4967L206.396 23.4674L205.473 23.852ZM213.873 48.275L212.928 48.6002L212.931 48.6105L212.935 48.6207L213.873 48.275ZM214.125 49.157L213.148 49.3694L213.153 49.3895L213.158 49.4094L214.125 49.157ZM214.356 50.165L213.376 50.3611H215.337L214.356 50.165ZM214.545 49.178L213.568 48.9656L213.565 48.9823L213.562 48.9991L214.545 49.178ZM214.755 48.275L213.799 47.9815L213.792 48.0068L213.785 48.0325L214.755 48.275ZM222.252 23.852L223.208 24.1455L223.213 24.1304L223.217 24.1151L222.252 23.852ZM222.525 23.453L221.937 22.6443L221.919 22.6578L221.901 22.6721L222.525 23.453ZM223.734 22.985L214.389 52.7L216.297 53.3L225.642 23.585L223.734 22.985ZM215.343 52H213.411V54H215.343V52ZM214.358 52.6778L205.58 26.8898L203.687 27.5342L212.465 53.3222L214.358 52.6778ZM205.586 26.9072C205.484 26.5876 205.393 26.253 205.316 25.9031L203.363 26.3369C203.453 26.743 203.559 27.1364 203.681 27.5168L205.586 26.9072ZM203.363 25.9031C203.285 26.253 203.195 26.5876 203.093 26.9072L204.998 27.5168C205.12 27.1364 205.225 26.743 205.316 26.3369L203.363 25.9031ZM203.099 26.8891L194.3 52.6771L196.193 53.3229L204.992 27.5349L203.099 26.8891ZM195.246 52H193.335V54H195.246V52ZM194.289 52.6994L184.923 22.9844L183.016 23.5856L192.382 53.3006L194.289 52.6994ZM183.969 24.285H185.754V22.285H183.969V24.285ZM185.754 24.285C185.802 24.285 185.746 24.2947 185.664 24.2345C185.626 24.2067 185.599 24.1758 185.583 24.1515C185.568 24.1289 185.568 24.12 185.573 24.1361L187.49 23.5679C187.387 23.218 187.187 22.8702 186.843 22.619C186.501 22.3698 186.112 22.285 185.754 22.285V24.285ZM185.575 24.1455L193.072 48.5685L194.984 47.9815L187.487 23.5585L185.575 24.1455ZM193.064 48.5402C193.208 49.0637 193.342 49.6694 193.464 50.3598L195.433 50.0122C195.303 49.2746 195.157 48.6063 194.993 48.0098L193.064 48.5402ZM195.43 50.3748C195.499 50.02 195.566 49.6951 195.634 49.3996L193.683 48.9564C193.61 49.2769 193.538 49.624 193.466 49.9972L195.43 50.3748ZM195.636 49.3904C195.698 49.1041 195.771 48.8428 195.854 48.6054L193.967 47.9446C193.854 48.2672 193.759 48.6079 193.681 48.9656L195.636 49.3904ZM195.856 48.6002L204.256 24.1772L202.365 23.5268L193.965 47.9498L195.856 48.6002ZM204.25 24.1937C204.245 24.2073 204.238 24.2201 204.231 24.2299C204.224 24.2393 204.221 24.24 204.229 24.2339L202.98 22.6721C202.71 22.8877 202.495 23.1677 202.371 23.5103L204.25 24.1937ZM204.229 24.2339C204.208 24.2506 204.181 24.2659 204.152 24.2757C204.123 24.2851 204.107 24.285 204.108 24.285V22.285C203.708 22.285 203.314 22.4048 202.98 22.6721L204.229 24.2339ZM204.108 24.285H204.696V22.285H204.108V24.285ZM204.696 24.285C204.699 24.285 204.675 24.2853 204.636 24.2715C204.594 24.2569 204.551 24.2325 204.515 24.2004L205.844 22.7056C205.505 22.4048 205.095 22.285 204.696 22.285V24.285ZM204.565 24.2424C204.56 24.238 204.555 24.2335 204.551 24.2292C204.547 24.2249 204.544 24.2215 204.542 24.2194C204.539 24.2152 204.543 24.2192 204.55 24.2366L206.396 23.4674C206.27 23.1627 206.074 22.8817 205.793 22.6636L204.565 24.2424ZM204.528 24.1772L212.928 48.6002L214.819 47.9498L206.419 23.5268L204.528 24.1772ZM212.935 48.6207C213.015 48.8369 213.087 49.0856 213.148 49.3694L215.103 48.9446C215.024 48.5844 214.928 48.2451 214.812 47.9293L212.935 48.6207ZM213.158 49.4094C213.237 49.7115 213.309 50.0287 213.376 50.3611L215.337 49.9689C215.263 49.6013 215.182 49.2465 215.093 48.9046L213.158 49.4094ZM215.337 50.3611C215.408 50.0062 215.472 49.6714 215.529 49.3569L213.562 48.9991C213.507 49.3006 213.445 49.6238 213.376 49.9689L215.337 50.3611ZM215.523 49.3904C215.591 49.0771 215.658 48.7863 215.726 48.5175L213.785 48.0325C213.712 48.3237 213.64 48.6349 213.568 48.9656L215.523 49.3904ZM215.711 48.5685L223.208 24.1455L221.296 23.5585L213.799 47.9815L215.711 48.5685ZM223.217 24.1151C223.209 24.1468 223.194 24.1768 223.177 24.2014C223.161 24.2251 223.149 24.235 223.15 24.2339L221.901 22.6721C221.617 22.8993 221.392 23.2058 221.288 23.5889L223.217 24.1151ZM223.114 24.2617C223.108 24.2661 223.095 24.2738 223.077 24.2794C223.06 24.285 223.049 24.285 223.05 24.285V22.285C222.65 22.285 222.267 22.4041 221.937 22.6443L223.114 24.2617ZM223.05 24.285H224.688V22.285H223.05V24.285ZM239.276 32.546L238.873 33.4612L238.879 33.464L238.886 33.4668L239.276 32.546ZM242.279 34.709L241.523 35.3635L242.279 34.709ZM244.127 38.111L243.173 38.4122L243.177 38.4242L244.127 38.111ZM244.127 46.973L243.177 46.6598L243.174 46.669L244.127 46.973ZM242.279 50.354L241.523 49.6995V49.6995L242.279 50.354ZM239.276 52.517L238.886 51.5962L238.882 51.5979L239.276 52.517ZM231.233 52.517L230.839 53.4362L230.843 53.4378L231.233 52.517ZM228.23 50.354L227.474 51.0085L227.479 51.0149L228.23 50.354ZM226.361 46.973L225.408 47.2771L225.411 47.2862L226.361 46.973ZM226.361 38.111L225.41 37.8008L225.408 37.807L226.361 38.111ZM228.23 34.709L227.479 34.0481L227.474 34.0545L228.23 34.709ZM231.233 32.546L231.627 33.4652L231.632 33.4629L231.233 32.546ZM238.52 51.068L238.934 51.9784L238.94 51.9756L238.52 51.068ZM240.851 49.22L240.066 48.6003L240.059 48.6089L240.851 49.22ZM242.258 46.343L243.222 46.6082L243.223 46.6051L242.258 46.343ZM240.851 35.864L240.054 36.4684L240.06 36.4761L240.066 36.4836L240.851 35.864ZM238.52 33.995L238.095 34.9001L238.1 34.9026L238.52 33.995ZM231.989 33.995L231.569 33.0874L231.564 33.0899L231.989 33.995ZM229.658 35.864L228.868 35.251L228.866 35.2529L229.658 35.864ZM228.251 38.762L227.289 38.4888L227.286 38.4999L228.251 38.762ZM228.251 46.343L227.286 46.6051L227.288 46.6122L227.29 46.6193L228.251 46.343ZM229.658 49.22L228.866 49.8311L228.873 49.8396L229.658 49.22ZM231.989 51.068L231.564 51.9731L231.572 51.977L231.58 51.9807L231.989 51.068ZM235.265 32.769C236.647 32.769 237.843 33.0076 238.873 33.4612L239.679 31.6308C238.357 31.0484 236.879 30.769 235.265 30.769V32.769ZM238.886 33.4668C239.941 33.9138 240.815 34.5459 241.523 35.3635L243.035 34.0545C242.119 32.9961 240.991 32.1862 239.666 31.6252L238.886 33.4668ZM241.523 35.3635C242.235 36.1863 242.789 37.196 243.173 38.4121L245.08 37.8099C244.624 36.366 243.947 35.1077 243.035 34.0545L241.523 35.3635ZM243.177 38.4242C243.572 39.6227 243.778 40.9916 243.778 42.542H245.778C245.778 40.8164 245.549 39.2313 245.077 37.7978L243.177 38.4242ZM243.778 42.542C243.778 44.0924 243.572 45.4613 243.177 46.6598L245.077 47.2862C245.549 45.8527 245.778 44.2676 245.778 42.542H243.778ZM243.174 46.669C242.791 47.8707 242.237 48.8748 241.523 49.6995L243.035 51.0085C243.945 49.9572 244.623 48.7073 245.08 47.277L243.174 46.669ZM241.523 49.6995C240.815 50.5171 239.941 51.1492 238.886 51.5962L239.666 53.4378C240.991 52.8768 242.119 52.0669 243.035 51.0085L241.523 49.6995ZM238.882 51.5979C237.85 52.0402 236.65 52.273 235.265 52.273V54.273C236.875 54.273 238.35 54.0018 239.67 53.4361L238.882 51.5979ZM235.265 52.273C233.88 52.273 232.671 52.0403 231.623 51.5962L230.843 53.4378C232.174 54.0017 233.654 54.273 235.265 54.273V52.273ZM231.627 51.5979C230.584 51.151 229.706 50.5169 228.98 49.6931L227.479 51.0149C228.406 52.0671 229.53 52.875 230.839 53.4361L231.627 51.5979ZM228.986 49.6995C228.27 48.8724 227.708 47.865 227.311 46.6598L225.411 47.2862C225.882 48.713 226.566 49.9596 227.474 51.0085L228.986 49.6995ZM227.314 46.669C226.93 45.4675 226.731 44.0954 226.731 42.542H224.731C224.731 44.2646 224.952 45.8465 225.408 47.277L227.314 46.669ZM226.731 42.542C226.731 40.9886 226.93 39.6165 227.314 38.415L225.408 37.807C224.952 39.2375 224.731 40.8194 224.731 42.542H226.731ZM227.312 38.4212C227.709 37.2017 228.272 36.1888 228.986 35.3635L227.474 34.0545C226.564 35.1052 225.88 36.3603 225.41 37.8008L227.312 38.4212ZM228.98 35.3699C229.706 34.5461 230.584 33.912 231.627 33.4651L230.839 31.6269C229.53 32.188 228.406 32.9959 227.479 34.0481L228.98 35.3699ZM231.632 33.4629C232.678 33.0075 233.883 32.769 235.265 32.769V30.769C233.651 30.769 232.168 31.0485 230.834 31.6291L231.632 33.4629ZM235.265 52.698C236.622 52.698 237.854 52.4693 238.934 51.9784L238.106 50.1576C237.338 50.5067 236.4 50.698 235.265 50.698V52.698ZM238.94 51.9756C240.02 51.4758 240.926 50.7596 241.642 49.8311L240.059 48.6089C239.544 49.2764 238.896 49.7922 238.1 50.1604L238.94 51.9756ZM241.636 49.8396C242.36 48.9227 242.884 47.8389 243.222 46.6082L241.294 46.0778C241.016 47.0871 240.602 47.9212 240.066 48.6004L241.636 49.8396ZM243.223 46.6051C243.558 45.3712 243.72 44.0142 243.72 42.542H241.72C241.72 43.8698 241.574 45.0468 241.293 46.0809L243.223 46.6051ZM243.72 42.542C243.72 41.0829 243.558 39.733 243.223 38.4999L241.293 39.0241C241.574 40.059 241.72 41.2291 241.72 42.542H243.72ZM243.223 38.4999C242.885 37.2559 242.361 36.1634 241.636 35.2444L240.066 36.4836C240.6 37.1606 241.015 38.0001 241.293 39.0241L243.223 38.4999ZM241.648 35.2596C240.931 34.3154 240.024 33.5891 238.94 33.0874L238.1 34.9026C238.892 35.2689 239.539 35.7886 240.054 36.4684L241.648 35.2596ZM238.945 33.0899C237.862 32.5812 236.626 32.344 235.265 32.344V34.344C236.396 34.344 237.33 34.5408 238.095 34.9001L238.945 33.0899ZM235.265 32.344C233.903 32.344 232.663 32.5813 231.569 33.0874L232.409 34.9026C233.191 34.5407 234.135 34.344 235.265 34.344V32.344ZM231.564 33.0899C230.496 33.5915 229.594 34.315 228.868 35.251L230.448 36.477C230.982 35.789 231.634 35.2665 232.414 34.9001L231.564 33.0899ZM228.866 35.2529C228.161 36.1672 227.64 37.2528 227.289 38.4888L229.213 39.0352C229.506 38.0032 229.923 37.1568 230.449 36.4751L228.866 35.2529ZM227.286 38.4999C226.951 39.733 226.789 41.0829 226.789 42.542H228.789C228.789 41.2291 228.935 40.059 229.216 39.0241L227.286 38.4999ZM226.789 42.542C226.789 44.0142 226.951 45.3712 227.286 46.6051L229.216 46.0809C228.935 45.0468 228.789 43.8698 228.789 42.542H226.789ZM227.29 46.6193C227.641 47.8419 228.162 48.9188 228.866 49.8311L230.449 48.6089C229.922 47.9251 229.504 47.0841 229.212 46.0667L227.29 46.6193ZM228.873 49.8396C229.6 50.7599 230.5 51.4734 231.564 51.9731L232.414 50.1629C231.63 49.7946 230.976 49.2761 230.443 48.6004L228.873 49.8396ZM231.58 51.9807C232.671 52.4691 233.907 52.698 235.265 52.698V50.698C234.13 50.698 233.183 50.5069 232.398 50.1553L231.58 51.9807ZM252.322 37.145L251.322 37.1785L253.257 37.4978L252.322 37.145ZM253.414 34.877L252.566 34.347L252.563 34.3519L253.414 34.877ZM254.842 33.176L254.196 32.4125L254.186 32.421L254.842 33.176ZM256.648 32.126L256.988 33.0664L256.999 33.0623L256.648 32.126ZM260.155 31.874L259.959 32.8546L259.974 32.8577L259.99 32.8604L260.155 31.874ZM261.268 32.273L262.261 32.3933L262.338 31.7538L261.788 31.4188L261.268 32.273ZM261.1 33.659L262.054 33.9573L262.082 33.87L262.093 33.7793L261.1 33.659ZM259.924 33.848L259.644 34.8081L259.654 34.811L259.924 33.848ZM256.417 34.079L256.777 35.0119L256.788 35.0075L256.417 34.079ZM254.737 35.171L254.04 34.4539L254.03 34.4639L254.737 35.171ZM253.435 36.998L252.547 36.5372L252.544 36.5438L253.435 36.998ZM252.427 39.476L251.477 39.164L251.427 39.316V39.476H252.427ZM252.427 53V54H253.427V53H252.427ZM250.411 53H249.411V54H250.411V53ZM250.411 32.105V31.105H249.411V32.105H250.411ZM251.986 32.252L251.279 32.9591V32.9591L251.986 32.252ZM252.175 32.756L253.174 32.7225L253.173 32.6807L253.168 32.6392L252.175 32.756ZM253.257 37.4978C253.561 36.6934 253.898 35.9968 254.265 35.4021L252.563 34.3519C252.118 35.0732 251.727 35.8886 251.386 36.7922L253.257 37.4978ZM254.262 35.407C254.636 34.8088 255.049 34.3204 255.497 33.931L254.186 32.421C253.571 32.9556 253.032 33.6012 252.566 34.347L254.262 35.407ZM255.488 33.9394C255.945 33.5523 256.444 33.2631 256.988 33.0664L256.308 31.1856C255.536 31.4649 254.83 31.8757 254.196 32.4126L255.488 33.9394ZM256.999 33.0623C257.545 32.8576 258.166 32.748 258.874 32.748V30.748C257.958 30.748 257.095 30.8904 256.297 31.1897L256.999 33.0623ZM258.874 32.748C259.243 32.748 259.604 32.7837 259.959 32.8546L260.351 30.8934C259.865 30.7963 259.373 30.748 258.874 30.748V32.748ZM259.99 32.8604C260.301 32.9121 260.548 33.0056 260.748 33.1272L261.788 31.4188C261.344 31.1484 260.849 30.9759 260.319 30.8876L259.99 32.8604ZM260.275 32.1527L260.107 33.5387L262.093 33.7793L262.261 32.3933L260.275 32.1527ZM260.145 33.3607C260.148 33.3526 260.181 33.2488 260.303 33.1461C260.44 33.0309 260.595 32.995 260.701 32.995V34.995C261.003 34.995 261.322 34.9031 261.592 34.6759C261.847 34.4612 261.982 34.1894 262.054 33.9573L260.145 33.3607ZM260.701 32.995C260.704 32.995 260.665 32.9943 260.566 32.9757C260.473 32.9581 260.35 32.929 260.193 32.885L259.654 34.811C260.015 34.9119 260.386 34.995 260.701 34.995V32.995ZM260.204 32.888C259.739 32.7525 259.185 32.701 258.58 32.701V34.701C259.095 34.701 259.436 34.7475 259.644 34.808L260.204 32.888ZM258.58 32.701C257.665 32.701 256.814 32.843 256.045 33.1505L256.788 35.0075C257.279 34.811 257.871 34.701 258.58 34.701V32.701ZM256.056 33.1462C255.307 33.4358 254.634 33.8763 254.04 34.454L255.434 35.888C255.848 35.4857 256.295 35.1982 256.777 35.0118L256.056 33.1462ZM254.03 34.4639C253.455 35.0381 252.964 35.7346 252.547 36.5372L254.322 37.4588C254.662 36.8054 255.038 36.2838 255.444 35.8781L254.03 34.4639ZM252.544 36.5438C252.152 37.3127 251.797 38.1879 251.477 39.164L253.377 39.788C253.672 38.8881 253.99 38.1113 254.326 37.4522L252.544 36.5438ZM251.427 39.476V53H253.427V39.476H251.427ZM252.427 52H250.411V54H252.427V52ZM251.411 53V32.105H249.411V53H251.411ZM250.411 33.105H251.482V31.105H250.411V33.105ZM251.482 33.105C251.538 33.105 251.539 33.1114 251.506 33.1017C251.471 33.0913 251.376 33.0562 251.279 32.9591L252.693 31.5449C252.311 31.163 251.808 31.105 251.482 31.105V33.105ZM251.279 32.9591C251.202 32.8821 251.175 32.8145 251.17 32.8026C251.166 32.7907 251.174 32.809 251.182 32.8728L253.168 32.6392C253.131 32.3245 253.03 31.8818 252.693 31.5449L251.279 32.9591ZM251.175 32.7895L251.322 37.1785L253.321 37.1115L253.174 32.7225L251.175 32.7895ZM267.274 22.445H268.274V21.445H267.274V22.445ZM267.274 41.072H266.274V42.072H267.274V41.072ZM268.786 40.988L268.492 40.0322L268.481 40.0356L268.47 40.0393L268.786 40.988ZM269.374 40.589L268.686 39.864L268.676 39.8728L268.667 39.8819L269.374 40.589ZM277.753 32.63L278.442 33.355L278.484 33.3149L278.522 33.2702L277.753 32.63ZM278.215 32.252L278.663 33.1464L278.691 33.132L278.719 33.1158L278.215 32.252ZM280.609 32.105L281.298 32.83L283.114 31.105H280.609V32.105ZM271.39 40.862L270.702 40.137L270.665 40.1723L270.631 40.2112L271.39 40.862ZM270.571 41.555L270.075 40.6868L268.453 41.6138L270.124 42.4494L270.571 41.555ZM271.138 41.954L270.431 42.6611L270.463 42.6932L270.498 42.7222L271.138 41.954ZM271.621 42.458L270.835 43.0758L270.859 43.1061L270.885 43.1344L271.621 42.458ZM281.302 53V54H283.578L282.039 52.3236L281.302 53ZM279.013 52.916L278.6 53.8264L278.647 53.8481L278.697 53.8647L279.013 52.916ZM278.572 52.517L279.386 51.9358L279.348 51.8826L279.304 51.8348L278.572 52.517ZM269.794 43.109L269.047 43.7734L269.055 43.7824L269.063 43.7912L269.794 43.109ZM269.458 42.794L268.808 43.5533L268.832 43.5745L268.858 43.594L269.458 42.794ZM269.143 42.605L268.696 43.4994L268.743 43.5229L268.792 43.5413L269.143 42.605ZM268.744 42.5L268.548 43.4806L268.601 43.4911L268.654 43.4959L268.744 42.5ZM267.274 42.458V41.458H266.274V42.458H267.274ZM267.274 53V54H268.274V53H267.274ZM265.258 53H264.258V54H265.258V53ZM265.258 22.445V21.445H264.258V22.445H265.258ZM266.274 22.445V41.072H268.274V22.445H266.274ZM267.274 42.072H268.24V40.072H267.274V42.072ZM268.24 42.072C268.533 42.072 268.822 42.0301 269.103 41.9367L268.47 40.0393C268.414 40.0579 268.34 40.072 268.24 40.072V42.072ZM269.081 41.9438C269.482 41.8203 269.815 41.563 270.082 41.2961L268.667 39.8819C268.596 39.953 268.543 39.9953 268.508 40.0188C268.474 40.0425 268.468 40.0396 268.492 40.0322L269.081 41.9438ZM270.063 41.314L278.442 33.355L277.065 31.905L268.686 39.864L270.063 41.314ZM278.522 33.2702C278.588 33.1909 278.637 33.1594 278.663 33.1464L277.768 31.3576C277.458 31.5126 277.199 31.7331 276.985 31.9898L278.522 33.2702ZM278.719 33.1158C278.696 33.1296 278.719 33.105 278.845 33.105V31.105C278.468 31.105 278.071 31.1783 277.712 31.3882L278.719 33.1158ZM278.845 33.105H280.609V31.105H278.845V33.105ZM279.921 31.38L270.702 40.137L272.079 41.587L281.298 32.83L279.921 31.38ZM270.631 40.2112C270.443 40.4305 270.257 40.5832 270.075 40.6868L271.068 42.4232C271.474 42.1908 271.834 41.8815 272.15 41.5128L270.631 40.2112ZM270.124 42.4494C270.266 42.5204 270.364 42.5935 270.431 42.6611L271.846 41.2469C271.605 41.0065 271.325 40.8136 271.019 40.6606L270.124 42.4494ZM270.498 42.7222C270.606 42.8116 270.719 42.9274 270.835 43.0758L272.408 41.8402C272.216 41.5966 272.007 41.3764 271.779 41.1858L270.498 42.7222ZM270.885 43.1344L280.566 53.6764L282.039 52.3236L272.358 41.7816L270.885 43.1344ZM281.302 52H279.559V54H281.302V52ZM279.559 52C279.46 52 279.385 51.9859 279.33 51.9673L278.697 53.8647C278.977 53.9581 279.267 54 279.559 54V52ZM279.427 52.0056C279.459 52.0199 279.468 52.0311 279.459 52.0222C279.448 52.0128 279.423 51.9874 279.386 51.9358L277.759 53.0982C277.96 53.38 278.232 53.6593 278.6 53.8264L279.427 52.0056ZM279.304 51.8348L270.526 42.4268L269.063 43.7912L277.841 53.1992L279.304 51.8348ZM270.542 42.4446C270.394 42.2784 270.234 42.1253 270.058 41.994L268.858 43.594C268.907 43.6307 268.971 43.6876 269.047 43.7734L270.542 42.4446ZM270.109 42.0347C269.93 41.8807 269.724 41.7549 269.495 41.6687L268.792 43.5413C268.79 43.5406 268.79 43.5402 268.792 43.5412C268.794 43.5424 268.799 43.5458 268.808 43.5533L270.109 42.0347ZM269.591 41.7106C269.344 41.5874 269.085 41.5268 268.835 41.5041L268.654 43.4959C268.712 43.5012 268.719 43.5106 268.696 43.4994L269.591 41.7106ZM268.941 41.5194C268.714 41.474 268.468 41.458 268.219 41.458V43.458C268.391 43.458 268.495 43.47 268.548 43.4806L268.941 41.5194ZM268.219 41.458H267.274V43.458H268.219V41.458ZM266.274 42.458V53H268.274V42.458H266.274ZM267.274 52H265.258V54H267.274V52ZM266.258 53V22.445H264.258V53H266.258ZM265.258 23.445H267.274V21.445H265.258V23.445ZM296.72 34.688L295.865 34.1697L295.858 34.1807L295.852 34.1919L296.72 34.688ZM295.649 34.73L295.042 35.5244L295.057 35.536L295.072 35.547L295.649 34.73ZM294.683 34.142L294.187 35.0102L294.205 35.0206L294.224 35.0302L294.683 34.142ZM293.213 33.554L292.917 34.5093L292.928 34.5125L292.938 34.5155L293.213 33.554ZM288.992 33.617L289.315 34.5636L289.327 34.5592L288.992 33.617ZM287.396 34.478L286.765 33.7019L286.759 33.7068L286.753 33.7118L287.396 34.478ZM286.388 35.759L287.283 36.2062L287.288 36.1959L286.388 35.759ZM286.535 38.909L285.744 39.5212L286.535 38.909ZM287.837 40.022L287.336 40.8875L287.346 40.893L287.837 40.022ZM289.706 40.82L290.011 39.8676L289.706 40.82ZM291.827 41.492L291.528 42.4462L291.533 42.4478L291.827 41.492ZM293.969 42.248L293.598 43.1765L293.606 43.1797L293.614 43.1828L293.969 42.248ZM295.817 43.256L295.21 44.051L295.22 44.0585L295.817 43.256ZM297.14 44.747L296.272 45.2431V45.2431L297.14 44.747ZM297.161 49.43L298.086 49.8099L297.161 49.43ZM295.733 51.467L295.06 50.7278L295.051 50.7354L295.733 51.467ZM286.514 52.643L286.106 53.5559L286.116 53.5603L286.514 52.643ZM283.658 50.795L282.818 50.2517L282.355 50.9678L282.989 51.5383L283.658 50.795ZM284.12 50.081L284.96 50.6243L284.964 50.6177L284.968 50.611L284.12 50.081ZM284.351 49.829L283.855 48.9608L283.825 48.9778L283.796 48.9969L284.351 49.829ZM285.38 50.081L284.716 50.8284L284.726 50.8373L284.736 50.8459L285.38 50.081ZM286.43 50.816L285.908 51.6686L285.918 51.6748L285.928 51.6808L286.43 50.816ZM288.026 51.53L287.691 52.4722L287.698 52.4745L288.026 51.53ZM292.73 51.509L293.064 52.4516L293.073 52.4486L293.081 52.4453L292.73 51.509ZM295.418 49.031L294.494 48.648L294.49 48.6596L295.418 49.031ZM295.271 45.482L294.462 46.0702L295.271 45.482ZM293.948 44.306L294.456 43.4446L293.948 44.306ZM292.079 43.487L291.769 44.4376L291.774 44.4394L292.079 43.487ZM289.958 42.815L289.664 43.7708L289.958 42.815ZM287.816 42.08L287.455 43.0124L287.461 43.0148L287.816 42.08ZM285.968 41.072L286.565 40.2695L285.968 41.072ZM284.645 39.602L283.777 40.0982L283.782 40.1072L284.645 39.602ZM285.989 33.47L285.337 32.7119L285.328 32.7196L285.989 33.47ZM288.173 32.231L288.512 33.1717L288.173 32.231ZM294.431 32.315L294.083 33.2524L294.087 33.254L294.431 32.315ZM297.14 33.995L297.995 34.5133L298.417 33.8175L297.821 33.2631L297.14 33.995ZM295.852 34.1919C295.863 34.1719 295.905 34.1091 295.995 34.0543C296.089 33.9973 296.18 33.982 296.237 33.982V35.982C296.838 35.982 297.315 35.6631 297.588 35.1841L295.852 34.1919ZM296.237 33.982C296.289 33.982 296.327 33.989 296.347 33.9939C296.367 33.9987 296.375 34.0026 296.368 33.9999C296.362 33.9973 296.347 33.9901 296.322 33.9755C296.297 33.9609 296.265 33.9406 296.226 33.913L295.072 35.547C295.351 35.7434 295.761 35.982 296.237 35.982V33.982ZM296.257 33.9356C295.955 33.7047 295.576 33.4782 295.142 33.2538L294.224 35.0302C294.602 35.2258 294.868 35.3913 295.042 35.5244L296.257 33.9356ZM295.179 33.2738C294.698 32.9987 294.128 32.7753 293.488 32.5925L292.938 34.5155C293.474 34.6687 293.884 34.8373 294.187 35.0102L295.179 33.2738ZM293.509 32.5987C292.797 32.3785 291.977 32.281 291.071 32.281V34.281C291.845 34.281 292.453 34.3655 292.917 34.5093L293.509 32.5987ZM291.071 32.281C290.216 32.281 289.408 32.4079 288.657 32.6748L289.327 34.5592C289.836 34.3781 290.414 34.281 291.071 34.281V32.281ZM288.669 32.6705C287.956 32.9138 287.316 33.2545 286.765 33.7019L288.027 35.2541C288.372 34.9735 288.797 34.7402 289.315 34.5635L288.669 32.6705ZM286.753 33.7118C286.216 34.1626 285.791 34.7004 285.489 35.3221L287.288 36.1959C287.462 35.8376 287.708 35.5214 288.039 35.2442L286.753 33.7118ZM285.494 35.3118C285.186 35.9266 285.031 36.5837 285.031 37.271H287.031C287.031 36.8943 287.114 36.5434 287.282 36.2062L285.494 35.3118ZM285.031 37.271C285.031 38.1051 285.247 38.8791 285.744 39.5212L287.326 38.2968C287.151 38.0709 287.031 37.7529 287.031 37.271H285.031ZM285.744 39.5212C286.169 40.0691 286.705 40.5223 287.336 40.8874L288.338 39.1566C287.905 38.9057 287.574 38.6169 287.326 38.2968L285.744 39.5212ZM287.346 40.893C287.96 41.2395 288.647 41.5311 289.401 41.7724L290.011 39.8676C289.365 39.6609 288.806 39.4205 288.328 39.151L287.346 40.893ZM289.401 41.7724C290.103 41.997 290.812 42.2216 291.528 42.4461L292.126 40.5379C291.414 40.3144 290.709 40.091 290.011 39.8676L289.401 41.7724ZM291.533 42.4478C292.235 42.6638 292.923 42.9067 293.598 43.1765L294.34 41.3195C293.615 41.0293 292.875 40.7682 292.121 40.5362L291.533 42.4478ZM293.614 43.1828C294.234 43.4186 294.764 43.7099 295.21 44.0509L296.424 42.461C295.807 41.9901 295.104 41.6094 294.324 41.3132L293.614 43.1828ZM295.22 44.0585C295.656 44.3826 296.005 44.7755 296.272 45.2431L298.008 44.2509C297.604 43.5425 297.07 42.9414 296.414 42.4535L295.22 44.0585ZM296.272 45.2431C296.503 45.6478 296.644 46.1816 296.644 46.889H298.644C298.644 45.9164 298.449 45.0222 298.008 44.2509L296.272 45.2431ZM296.644 46.889C296.644 47.6784 296.505 48.3953 296.236 49.0501L298.086 49.8099C298.461 48.8967 298.644 47.9196 298.644 46.889H296.644ZM296.236 49.0501C295.971 49.6964 295.581 50.2529 295.06 50.7278L296.407 52.2062C297.145 51.5331 297.708 50.7316 298.086 49.8099L296.236 49.0501ZM295.051 50.7354C294.546 51.2063 293.902 51.5969 293.098 51.8939L293.79 53.7701C294.806 53.3951 295.688 52.8757 296.415 52.1986L295.051 50.7354ZM293.098 51.8939C292.319 52.1813 291.397 52.336 290.315 52.336V54.336C291.585 54.336 292.749 54.1547 293.79 53.7701L293.098 51.8939ZM290.315 52.336C288.947 52.336 287.822 52.1207 286.912 51.7257L286.116 53.5603C287.334 54.0893 288.743 54.336 290.315 54.336V52.336ZM286.922 51.7302C285.951 51.2954 285.087 50.7358 284.327 50.0517L282.989 51.5383C283.909 52.3662 284.95 53.0386 286.106 53.5558L286.922 51.7302ZM284.498 51.3383L284.96 50.6243L283.28 49.5378L282.818 50.2517L284.498 51.3383ZM284.968 50.611C284.976 50.5989 284.976 50.6002 284.967 50.6097C284.958 50.6195 284.939 50.6392 284.906 50.661L283.796 48.9969C283.564 49.152 283.395 49.3541 283.272 49.551L284.968 50.611ZM284.847 50.6972C284.749 50.7534 284.688 50.745 284.729 50.745V48.745C284.462 48.745 284.149 48.7926 283.855 48.9608L284.847 50.6972ZM284.729 50.745C284.672 50.745 284.628 50.7361 284.602 50.7288C284.576 50.7216 284.565 50.7153 284.57 50.7176C284.574 50.7199 284.589 50.7282 284.615 50.7469C284.641 50.7655 284.675 50.7919 284.716 50.8284L286.044 49.3336C285.748 49.0698 285.293 48.745 284.729 48.745V50.745ZM284.736 50.8459C285.053 51.1132 285.448 51.3873 285.908 51.6686L286.953 49.9634C286.544 49.7127 286.239 49.4968 286.024 49.3161L284.736 50.8459ZM285.928 51.6808C286.429 51.9719 287.021 52.2339 287.691 52.4722L288.361 50.5878C287.771 50.3781 287.299 50.1641 286.932 49.9512L285.928 51.6808ZM287.698 52.4745C288.479 52.7462 289.388 52.866 290.399 52.866V50.866C289.534 50.866 288.862 50.7618 288.355 50.5855L287.698 52.4745ZM290.399 52.866C291.369 52.866 292.263 52.7354 293.064 52.4516L292.396 50.5664C291.853 50.7586 291.193 50.866 290.399 50.866V52.866ZM293.081 52.4453C293.856 52.1547 294.535 51.7546 295.094 51.2305L293.726 49.7715C293.389 50.0874 292.948 50.3593 292.379 50.5727L293.081 52.4453ZM295.094 51.2305C295.647 50.7124 296.067 50.1007 296.347 49.4024L294.49 48.6596C294.321 49.0813 294.069 49.4496 293.726 49.7715L295.094 51.2305ZM296.342 49.414C296.631 48.7169 296.775 47.9846 296.775 47.225H294.775C294.775 47.7254 294.681 48.1971 294.494 48.648L296.342 49.414ZM296.775 47.225C296.775 46.3621 296.566 45.5622 296.08 44.8938L294.462 46.0702C294.648 46.3258 294.775 46.6879 294.775 47.225H296.775ZM296.08 44.8938C295.655 44.3096 295.107 43.8285 294.456 43.4446L293.44 45.1674C293.881 45.4275 294.215 45.7304 294.462 46.0702L296.08 44.8938ZM294.456 43.4446C293.837 43.0794 293.144 42.7778 292.384 42.5346L291.774 44.4394C292.414 44.6442 292.967 44.8886 293.44 45.1674L294.456 43.4446ZM292.389 42.5364C291.698 42.3105 290.985 42.0848 290.252 41.8592L289.664 43.7708C290.387 43.9932 291.088 44.2155 291.769 44.4376L292.389 42.5364ZM290.252 41.8592C289.544 41.6414 288.851 41.4034 288.171 41.1452L287.461 43.0148C288.181 43.2886 288.916 43.5405 289.664 43.7708L290.252 41.8592ZM288.178 41.1476C287.569 40.9115 287.033 40.6177 286.565 40.2695L285.371 41.8745C285.995 42.3383 286.691 42.7165 287.455 43.0124L288.178 41.1476ZM286.565 40.2695C286.124 39.9418 285.775 39.5521 285.508 39.0968L283.782 40.1072C284.188 40.7999 284.72 41.3902 285.371 41.8745L286.565 40.2695ZM285.513 39.1059C285.285 38.7058 285.141 38.16 285.141 37.418H283.141C283.141 38.412 283.333 39.3222 283.777 40.0981L285.513 39.1059ZM285.141 37.418C285.141 36.8261 285.268 36.2569 285.529 35.7009L283.719 34.8511C283.336 35.6671 283.141 36.5259 283.141 37.418H285.141ZM285.529 35.7009C285.791 35.1432 286.161 34.6509 286.65 34.2204L285.328 32.7196C284.641 33.3251 284.101 34.0368 283.719 34.8511L285.529 35.7009ZM286.641 34.228C287.139 33.8 287.757 33.4442 288.512 33.1717L287.834 31.2903C286.881 31.6338 286.043 32.104 285.337 32.712L286.641 34.228ZM288.512 33.1717C289.241 32.909 290.082 32.769 291.05 32.769V30.769C289.89 30.769 288.814 30.937 287.834 31.2903L288.512 33.1717ZM291.05 32.769C292.23 32.769 293.236 32.9377 294.083 33.2524L294.779 31.3776C293.666 30.9642 292.418 30.769 291.05 30.769V32.769ZM294.087 33.254C294.95 33.57 295.739 34.0573 296.459 34.7269L297.821 33.2631C296.917 32.4207 295.9 31.788 294.775 31.376L294.087 33.254ZM296.285 33.4767L295.865 34.1697L297.575 35.2063L297.995 34.5133L296.285 33.4767Z" fill="#0C4579"/>
<line x1="101" y1="1.5" x2="314" y2="1.5" stroke="#0C4579" stroke-width="3"/>
<line x1="101" y1="74.5" x2="314" y2="74.5" stroke="#0C4579" stroke-width="3"/>
<path d="M37.9706 75.5C19.9546 75.5261 4.49654 62.6006 1.15931 45.0425C4.40775 39.6306 8.61163 34.855 13.5346 30.9497C15.9329 32.3623 19.0423 31.9102 21.0388 29.8773C32.8115 33.9249 42.6855 42.0762 48.9512 52.6173C46.7274 55.0674 46.7752 58.7794 49.0824 61.0458C46.245 66.4978 42.4677 71.3857 37.9706 75.5ZM0.502111 37.5953C0.539765 34.0002 1.0809 30.4897 2.10574 27.1056C4.83717 26.9995 7.55349 27.0996 10.3722 27.4398C6.63897 30.4372 3.34406 33.8373 0.502111 37.5953ZM74.173 28.0918C78.2138 42.8769 72.9048 59.071 59.9104 68.4333C59.419 65.8508 58.753 63.3137 57.9122 60.8393C60.4075 58.2896 60.297 54.2356 57.6577 51.9667C60.2012 42.5482 60.2773 32.5434 57.8949 23.1047C58.5447 22.6896 59.0955 22.1499 59.5101 21.5114C64.7747 22.9429 69.7086 25.1853 74.173 28.0918ZM22.8285 25.0571C30.5892 21.2155 39.155 19.3879 47.8703 19.7257C48.7608 21.8223 50.8024 23.4865 53.2503 23.9375C55.5261 32.6372 55.4989 41.8223 53.1831 50.4949C46.6162 39.2932 36.0073 30.0904 22.8458 25.5143C22.8462 25.3696 22.8412 25.2187 22.8285 25.0571ZM47.2118 1.64358C57.824 4.32643 66.6326 11.5279 71.4727 21.0856C67.8306 19.2397 64.0002 17.7954 60.0326 16.7783C59.1807 14.2604 56.7067 12.2995 53.8304 12.0416C52.0237 8.36934 49.811 4.88474 47.2118 1.64358ZM3.89978 22.3788C10.1068 8.85073 24.0697 -0.254914 39.9311 0.549343C43.6481 4.3207 46.795 8.65248 49.2315 13.4069C48.6998 13.8594 48.2625 14.4091 47.9472 15.0346C38.6797 14.689 29.2688 16.5777 20.6153 20.8811C17.6874 18.5574 13.2886 19.5254 11.4354 22.8405C8.87063 22.5124 6.39693 22.367 3.89978 22.3788ZM45.284 74.7919C48.5651 71.111 51.3206 67.0676 53.5117 62.7595L53.5844 62.7564C54.4798 65.4524 55.1609 68.2463 55.608 71.1159C52.4152 72.8181 48.9454 74.0713 45.284 74.7919Z" fill="#0C4579" stroke="#0C4579"/>
</svg>
