<svg width="2909" height="224" viewBox="0 0 2909 224" fill="none" xmlns="http://www.w3.org/2000/svg">
<path d="M169.832 14.216V221H139.16V127.832H31.304V221H0.488037V14.216H31.304V105.512H139.16V14.216H169.832Z" fill="black"/>
<path d="M330.86 143.96L300.188 63.752C297.98 58.28 295.772 51.368 293.564 43.016C292.508 47.144 291.404 50.984 290.252 54.536C289.196 58.088 288.14 61.256 287.084 64.04L256.556 143.96H330.86ZM391.484 221H367.868C365.18 221 362.972 220.328 361.244 218.984C359.516 217.64 358.268 215.912 357.5 213.8L339.212 165.848H248.06L229.772 213.8C229.1 215.624 227.852 217.304 226.028 218.84C224.204 220.28 221.996 221 219.404 221H195.788L278.156 14.216H309.116L391.484 221Z" fill="black"/>
<path d="M524.293 47.912C523.333 49.544 522.325 50.744 521.269 51.512C520.213 52.28 518.869 52.664 517.237 52.664C515.509 52.664 513.541 51.896 511.333 50.36C509.125 48.728 506.341 46.952 502.981 45.032C499.717 43.016 495.781 41.24 491.173 39.704C486.565 38.072 481.045 37.256 474.613 37.256C468.565 37.256 463.237 38.072 458.629 39.704C454.117 41.24 450.325 43.4 447.253 46.184C444.181 48.872 441.829 52.088 440.197 55.832C438.661 59.48 437.893 63.464 437.893 67.784C437.893 73.352 439.285 77.96 442.069 81.608C444.949 85.256 448.693 88.376 453.301 90.968C457.909 93.56 463.141 95.816 468.997 97.736C474.853 99.656 480.853 101.672 486.997 103.784C493.141 105.8 499.141 108.152 504.997 110.84C510.853 113.528 516.085 116.936 520.693 121.064C525.301 125.096 528.997 130.088 531.781 136.04C534.661 141.896 536.101 149.096 536.101 157.64C536.101 166.76 534.517 175.304 531.349 183.272C528.277 191.24 523.765 198.2 517.813 204.152C511.861 210.104 504.517 214.808 495.781 218.264C487.141 221.624 477.301 223.304 466.261 223.304C459.637 223.304 453.205 222.632 446.965 221.288C440.725 220.04 434.821 218.264 429.253 215.96C423.685 213.56 418.453 210.728 413.557 207.464C408.757 204.104 404.437 200.36 400.597 196.232L409.381 181.544C410.245 180.392 411.253 179.432 412.405 178.664C413.653 177.896 415.045 177.512 416.581 177.512C418.597 177.512 420.901 178.568 423.493 180.68C426.181 182.792 429.445 185.144 433.285 187.736C437.221 190.232 441.877 192.536 447.253 194.648C452.725 196.76 459.349 197.816 467.125 197.816C473.461 197.816 479.125 197 484.117 195.368C489.109 193.64 493.285 191.24 496.645 188.168C500.101 185 502.741 181.208 504.565 176.792C506.389 172.376 507.301 167.48 507.301 162.104C507.301 156.056 505.909 151.112 503.125 147.272C500.341 143.432 496.645 140.216 492.037 137.624C487.429 135.032 482.197 132.824 476.341 131C470.485 129.176 464.485 127.304 458.341 125.384C452.197 123.368 446.197 121.064 440.341 118.472C434.485 115.88 429.253 112.52 424.645 108.392C420.037 104.168 416.341 98.936 413.557 92.696C410.773 86.36 409.381 78.584 409.381 69.368C409.381 61.976 410.821 54.824 413.701 47.912C416.581 41 420.757 34.904 426.229 29.624C431.797 24.248 438.613 19.976 446.677 16.808C454.741 13.544 463.957 11.912 474.325 11.912C485.941 11.912 496.597 13.784 506.293 17.528C516.085 21.176 524.581 26.456 531.781 33.368L524.293 47.912Z" fill="black"/>
<path d="M702.261 196.088L702.117 221H573.957V14.216H702.117V39.128H604.773V104.648H683.109V128.696H604.773V196.088H702.261Z" fill="black"/>
<path d="M904.444 120.344V200.984C893.98 208.472 882.844 214.088 871.036 217.832C859.228 221.48 846.364 223.304 832.444 223.304C815.74 223.304 800.62 220.712 787.084 215.528C773.644 210.344 762.172 203.096 752.668 193.784C743.164 184.472 735.82 173.336 730.636 160.376C725.548 147.416 723.004 133.16 723.004 117.608C723.004 101.96 725.452 87.656 730.348 74.696C735.34 61.64 742.444 50.504 751.66 41.288C760.876 31.976 772.012 24.776 785.068 19.688C798.22 14.504 812.956 11.912 829.276 11.912C837.532 11.912 845.164 12.536 852.172 13.784C859.276 15.032 865.852 16.808 871.9 19.112C877.948 21.416 883.516 24.2 888.604 27.464C893.788 30.632 898.588 34.232 903.004 38.264L894.22 52.088C892.876 54.296 891.1 55.688 888.892 56.264C886.684 56.84 884.284 56.312 881.692 54.68C879.196 53.24 876.412 51.56 873.34 49.64C870.364 47.72 866.764 45.944 862.54 44.312C858.412 42.68 853.564 41.288 847.996 40.136C842.428 38.984 835.852 38.408 828.268 38.408C816.94 38.408 806.716 40.28 797.596 44.024C788.476 47.672 780.7 52.952 774.268 59.864C767.836 66.776 762.892 75.128 759.436 84.92C755.98 94.616 754.252 105.512 754.252 117.608C754.252 130.28 756.076 141.656 759.724 151.736C763.372 161.72 768.508 170.216 775.132 177.224C781.852 184.136 789.964 189.416 799.468 193.064C809.068 196.712 819.772 198.536 831.58 198.536C836.188 198.536 840.46 198.296 844.396 197.816C848.428 197.24 852.268 196.472 855.916 195.512C859.564 194.552 863.068 193.352 866.428 191.912C869.884 190.472 873.292 188.888 876.652 187.16V143.816H846.124C844.204 143.816 842.62 143.24 841.372 142.088C840.22 140.936 839.644 139.496 839.644 137.768V120.344H904.444Z" fill="black"/>
<path d="M1053.67 143.96L1023 63.752C1020.79 58.28 1018.58 51.368 1016.38 43.016C1015.32 47.144 1014.22 50.984 1013.06 54.536C1012.01 58.088 1010.95 61.256 1009.9 64.04L979.369 143.96H1053.67ZM1114.3 221H1090.68C1087.99 221 1085.78 220.328 1084.06 218.984C1082.33 217.64 1081.08 215.912 1080.31 213.8L1062.02 165.848H970.873L952.585 213.8C951.913 215.624 950.665 217.304 948.841 218.84C947.017 220.28 944.809 221 942.217 221H918.601L1000.97 14.216H1031.93L1114.3 221Z" fill="black"/>
<path d="M1397.46 14.216L1332.94 221H1305.3L1254.9 67.64C1253.74 64.568 1252.74 60.872 1251.87 56.552C1250.82 60.968 1249.81 64.664 1248.85 67.64L1197.87 221H1170.37L1105.86 14.216H1131.49C1134.18 14.216 1136.43 14.888 1138.26 16.232C1140.08 17.48 1141.28 19.208 1141.86 21.416L1182.61 159.8C1183.38 162.488 1184.05 165.416 1184.62 168.584C1185.3 171.752 1185.97 175.064 1186.64 178.52C1187.31 175.064 1187.98 171.752 1188.66 168.584C1189.42 165.416 1190.29 162.488 1191.25 159.8L1237.9 21.416C1238.48 19.496 1239.68 17.816 1241.5 16.376C1243.42 14.936 1245.68 14.216 1248.27 14.216H1257.06C1259.74 14.216 1261.95 14.888 1263.68 16.232C1265.41 17.576 1266.66 19.304 1267.42 21.416L1313.94 159.8C1315.66 165.08 1317.2 171.08 1318.54 177.8C1319.7 171.176 1320.94 165.176 1322.29 159.8L1363.18 21.416C1363.66 19.496 1364.86 17.816 1366.78 16.376C1368.7 14.936 1370.96 14.216 1373.55 14.216H1397.46Z" fill="black"/>
<path d="M1523.92 143.96L1493.25 63.752C1491.04 58.28 1488.83 51.368 1486.63 43.016C1485.57 47.144 1484.47 50.984 1483.31 54.536C1482.26 58.088 1481.2 61.256 1480.15 64.04L1449.62 143.96H1523.92ZM1584.55 221H1560.93C1558.24 221 1556.03 220.328 1554.31 218.984C1552.58 217.64 1551.33 215.912 1550.56 213.8L1532.27 165.848H1441.12L1422.83 213.8C1422.16 215.624 1420.91 217.304 1419.09 218.84C1417.27 220.28 1415.06 221 1412.47 221H1388.85L1471.22 14.216H1502.18L1584.55 221Z" fill="black"/>
<path d="M1607.72 0.391968C1611.95 7.39996 1614.78 14.792 1616.22 22.568C1617.76 30.248 1617.95 37.88 1616.8 45.464C1615.64 52.952 1613.15 60.2 1609.31 67.208C1605.47 74.12 1600.38 80.312 1594.04 85.784L1585.4 80.312C1583.77 79.256 1583.05 78.008 1583.24 76.568C1583.44 75.032 1583.96 73.832 1584.83 72.968C1587.23 70.088 1589.29 66.536 1591.02 62.312C1592.84 57.992 1594.04 53.336 1594.62 48.344C1595.2 43.256 1595 38.024 1594.04 32.648C1593.08 27.272 1591.07 21.992 1588 16.808C1586.65 14.6 1586.27 12.632 1586.84 10.904C1587.42 9.17596 1588.67 7.92796 1590.59 7.15997L1607.72 0.391968Z" fill="black"/>
<path d="M1730.23 99.896C1729.47 101.144 1728.65 102.056 1727.79 102.632C1726.92 103.112 1725.82 103.352 1724.47 103.352C1722.94 103.352 1721.21 102.824 1719.29 101.768C1717.47 100.712 1715.21 99.56 1712.52 98.312C1709.93 97.064 1706.86 95.912 1703.31 94.856C1699.75 93.8 1695.53 93.272 1690.63 93.272C1686.6 93.272 1682.91 93.8 1679.55 94.856C1676.28 95.816 1673.5 97.208 1671.19 99.032C1668.89 100.76 1667.11 102.872 1665.87 105.368C1664.62 107.768 1663.99 110.36 1663.99 113.144C1663.99 116.792 1665.05 119.816 1667.16 122.216C1669.37 124.616 1672.2 126.68 1675.66 128.408C1679.21 130.136 1683.19 131.72 1687.61 133.16C1692.12 134.504 1696.68 135.944 1701.29 137.48C1705.99 139.016 1710.55 140.792 1714.97 142.808C1719.48 144.728 1723.47 147.176 1726.92 150.152C1730.47 153.032 1733.31 156.536 1735.42 160.664C1737.63 164.792 1738.73 169.832 1738.73 175.784C1738.73 182.6 1737.48 188.936 1734.99 194.792C1732.59 200.552 1728.99 205.544 1724.19 209.768C1719.48 213.992 1713.63 217.304 1706.62 219.704C1699.61 222.104 1691.59 223.304 1682.57 223.304C1672.49 223.304 1663.18 221.624 1654.63 218.264C1646.09 214.904 1638.94 210.632 1633.18 205.448L1639.8 194.648C1640.57 193.304 1641.53 192.296 1642.68 191.624C1643.83 190.856 1645.37 190.472 1647.29 190.472C1649.11 190.472 1650.99 191.144 1652.91 192.488C1654.83 193.832 1657.13 195.32 1659.82 196.952C1662.51 198.488 1665.77 199.928 1669.61 201.272C1673.45 202.52 1678.25 203.144 1684.01 203.144C1688.81 203.144 1692.99 202.568 1696.54 201.416C1700.09 200.168 1703.02 198.536 1705.32 196.52C1707.72 194.408 1709.5 192.008 1710.65 189.32C1711.8 186.632 1712.38 183.8 1712.38 180.824C1712.38 176.984 1711.27 173.816 1709.07 171.32C1706.95 168.728 1704.12 166.52 1700.57 164.696C1697.11 162.872 1693.13 161.288 1688.62 159.944C1684.11 158.6 1679.5 157.16 1674.79 155.624C1670.09 154.088 1665.48 152.312 1660.97 150.296C1656.46 148.28 1652.43 145.736 1648.87 142.664C1645.42 139.592 1642.59 135.848 1640.38 131.432C1638.27 127.016 1637.21 121.64 1637.21 115.304C1637.21 109.64 1638.36 104.216 1640.67 99.032C1643.07 93.848 1646.47 89.288 1650.89 85.352C1655.4 81.416 1660.92 78.296 1667.45 75.992C1674.07 73.592 1681.61 72.392 1690.06 72.392C1699.75 72.392 1708.49 73.928 1716.27 77C1724.14 80.072 1730.86 84.296 1736.43 89.672L1730.23 99.896Z" fill="black"/>
<path d="M1910.38 120.632C1918.15 120.632 1924.97 119.624 1930.83 117.608C1936.78 115.592 1941.72 112.76 1945.66 109.112C1949.69 105.368 1952.71 100.952 1954.73 95.864C1956.75 90.68 1957.75 84.968 1957.75 78.728C1957.75 66.152 1953.82 56.264 1945.95 49.064C1938.17 41.864 1926.31 38.264 1910.38 38.264H1878.41V120.632H1910.38ZM1910.38 14.216C1923.63 14.216 1935.15 15.752 1944.94 18.824C1954.73 21.896 1962.84 26.264 1969.27 31.928C1975.71 37.496 1980.46 44.264 1983.53 52.232C1986.7 60.2 1988.28 69.032 1988.28 78.728C1988.28 88.424 1986.6 97.352 1983.24 105.512C1979.88 113.576 1974.94 120.536 1968.41 126.392C1961.88 132.248 1953.72 136.808 1943.93 140.072C1934.23 143.24 1923.05 144.824 1910.38 144.824H1878.41V221H1847.74V14.216H1910.38Z" fill="black"/>
<path d="M2071.39 72.392C2082.14 72.392 2091.84 74.168 2100.48 77.72C2109.22 81.176 2116.61 86.216 2122.66 92.84C2128.8 99.368 2133.5 107.288 2136.77 116.6C2140.03 125.816 2141.66 136.184 2141.66 147.704C2141.66 159.224 2140.03 169.64 2136.77 178.952C2133.5 188.264 2128.8 196.184 2122.66 202.712C2116.61 209.24 2109.22 214.28 2100.48 217.832C2091.84 221.288 2082.14 223.016 2071.39 223.016C2060.54 223.016 2050.75 221.288 2042.02 217.832C2033.38 214.28 2025.98 209.24 2019.84 202.712C2013.7 196.184 2008.94 188.264 2005.58 178.952C2002.32 169.64 2000.69 159.224 2000.69 147.704C2000.69 136.184 2002.32 125.816 2005.58 116.6C2008.94 107.288 2013.7 99.368 2019.84 92.84C2025.98 86.216 2033.38 81.176 2042.02 77.72C2050.75 74.168 2060.54 72.392 2071.39 72.392ZM2071.39 201.128C2085.22 201.128 2095.54 196.472 2102.35 187.16C2109.17 177.848 2112.58 164.744 2112.58 147.848C2112.58 130.952 2109.17 117.848 2102.35 108.536C2095.54 99.128 2085.22 94.424 2071.39 94.424C2057.38 94.424 2046.91 99.128 2040 108.536C2033.18 117.848 2029.78 130.952 2029.78 147.848C2029.78 164.744 2033.18 177.848 2040 187.16C2046.91 196.472 2057.38 201.128 2071.39 201.128Z" fill="black"/>
<path d="M2199.51 102.776C2204.21 93.176 2209.87 85.64 2216.5 80.168C2223.12 74.696 2231.09 71.96 2240.4 71.96C2243.57 71.96 2246.55 72.344 2249.33 73.112C2252.21 73.784 2254.71 74.84 2256.82 76.28L2254.95 97.448C2254.27 100.04 2252.69 101.336 2250.19 101.336C2248.85 101.336 2246.83 101.096 2244.15 100.616C2241.46 100.04 2238.58 99.752 2235.51 99.752C2230.99 99.752 2227.01 100.424 2223.55 101.768C2220.1 103.016 2216.98 104.936 2214.19 107.528C2211.51 110.024 2209.11 113.144 2206.99 116.888C2204.88 120.536 2202.91 124.712 2201.09 129.416V221H2173.01V74.696H2189.14C2192.21 74.696 2194.27 75.272 2195.33 76.424C2196.48 77.48 2197.3 79.4 2197.78 82.184L2199.51 102.776Z" fill="black"/>
<path d="M2385.47 221V97.448H2315.49V183.128C2315.49 188.888 2316.88 193.208 2319.66 196.088C2322.54 198.872 2326.19 200.264 2330.61 200.264C2333.2 200.264 2335.41 199.928 2337.23 199.256C2339.15 198.584 2340.78 197.864 2342.13 197.096C2343.47 196.232 2344.62 195.464 2345.58 194.792C2346.54 194.12 2347.41 193.784 2348.17 193.784C2349.13 193.784 2349.85 194.024 2350.33 194.504C2350.91 194.888 2351.49 195.56 2352.06 196.52L2360.41 210.056C2355.81 214.28 2350.33 217.544 2344 219.848C2337.66 222.152 2331.09 223.304 2324.27 223.304C2312.46 223.304 2303.34 219.992 2296.91 213.368C2290.57 206.744 2287.41 197.288 2287.41 185V97.448H2270.41C2268.78 97.448 2267.39 96.968 2266.24 96.008C2265.18 94.952 2264.65 93.416 2264.65 91.4V80.024L2288.41 76.712L2294.75 33.08C2295.13 31.448 2295.85 30.2 2296.91 29.336C2298.06 28.376 2299.5 27.896 2301.23 27.896H2315.49V77H2385.47V63.752C2385.47 55.4 2386.67 47.96 2389.07 41.432C2391.47 34.904 2394.88 29.384 2399.29 24.872C2403.81 20.264 2409.23 16.808 2415.57 14.504C2421.9 12.104 2429.01 10.904 2436.88 10.904C2443.31 10.904 2449.41 11.864 2455.17 13.784L2454.45 27.896C2454.35 29.144 2453.97 30.104 2453.29 30.776C2452.72 31.352 2451.85 31.784 2450.7 32.072C2449.55 32.36 2448.21 32.552 2446.67 32.648C2445.13 32.648 2443.41 32.648 2441.49 32.648C2437.17 32.648 2433.23 33.176 2429.68 34.232C2426.13 35.288 2423.1 37.064 2420.61 39.56C2418.11 42.056 2416.19 45.368 2414.85 49.496C2413.5 53.528 2412.83 58.568 2412.83 64.616V77H2453.87V97.448H2413.69V221H2385.47Z" fill="black"/>
<path d="M2535.46 72.392C2546.21 72.392 2555.9 74.168 2564.54 77.72C2573.28 81.176 2580.67 86.216 2586.72 92.84C2592.86 99.368 2597.57 107.288 2600.83 116.6C2604.1 125.816 2605.73 136.184 2605.73 147.704C2605.73 159.224 2604.1 169.64 2600.83 178.952C2597.57 188.264 2592.86 196.184 2586.72 202.712C2580.67 209.24 2573.28 214.28 2564.54 217.832C2555.9 221.288 2546.21 223.016 2535.46 223.016C2524.61 223.016 2514.82 221.288 2506.08 217.832C2497.44 214.28 2490.05 209.24 2483.9 202.712C2477.76 196.184 2473.01 188.264 2469.65 178.952C2466.38 169.64 2464.75 159.224 2464.75 147.704C2464.75 136.184 2466.38 125.816 2469.65 116.6C2473.01 107.288 2477.76 99.368 2483.9 92.84C2490.05 86.216 2497.44 81.176 2506.08 77.72C2514.82 74.168 2524.61 72.392 2535.46 72.392ZM2535.46 201.128C2549.28 201.128 2559.6 196.472 2566.42 187.16C2573.23 177.848 2576.64 164.744 2576.64 147.848C2576.64 130.952 2573.23 117.848 2566.42 108.536C2559.6 99.128 2549.28 94.424 2535.46 94.424C2521.44 94.424 2510.97 99.128 2504.06 108.536C2497.25 117.848 2493.84 130.952 2493.84 147.848C2493.84 164.744 2497.25 177.848 2504.06 187.16C2510.97 196.472 2521.44 201.128 2535.46 201.128Z" fill="black"/>
<path d="M2665.87 8.45597V221H2637.65V8.45597H2665.87Z" fill="black"/>
<path d="M2735.35 74.696V221H2707.27V74.696H2735.35ZM2740.68 29.48C2740.68 32.072 2740.15 34.568 2739.1 36.968C2738.04 39.272 2736.6 41.336 2734.78 43.16C2733.05 44.888 2730.99 46.28 2728.59 47.336C2726.19 48.296 2723.69 48.776 2721.1 48.776C2718.51 48.776 2716.06 48.296 2713.75 47.336C2711.45 46.28 2709.39 44.888 2707.56 43.16C2705.83 41.336 2704.44 39.272 2703.39 36.968C2702.43 34.568 2701.95 32.072 2701.95 29.48C2701.95 26.792 2702.43 24.296 2703.39 21.992C2704.44 19.592 2705.83 17.528 2707.56 15.8C2709.39 13.976 2711.45 12.584 2713.75 11.624C2716.06 10.568 2718.51 10.04 2721.1 10.04C2723.69 10.04 2726.19 10.568 2728.59 11.624C2730.99 12.584 2733.05 13.976 2734.78 15.8C2736.6 17.528 2738.04 19.592 2739.1 21.992C2740.15 24.296 2740.68 26.792 2740.68 29.48Z" fill="black"/>
<path d="M2838.36 72.392C2849.11 72.392 2858.81 74.168 2867.45 77.72C2876.19 81.176 2883.58 86.216 2889.63 92.84C2895.77 99.368 2900.47 107.288 2903.74 116.6C2907 125.816 2908.63 136.184 2908.63 147.704C2908.63 159.224 2907 169.64 2903.74 178.952C2900.47 188.264 2895.77 196.184 2889.63 202.712C2883.58 209.24 2876.19 214.28 2867.45 217.832C2858.81 221.288 2849.11 223.016 2838.36 223.016C2827.51 223.016 2817.72 221.288 2808.99 217.832C2800.35 214.28 2792.95 209.24 2786.81 202.712C2780.67 196.184 2775.91 188.264 2772.55 178.952C2769.29 169.64 2767.66 159.224 2767.66 147.704C2767.66 136.184 2769.29 125.816 2772.55 116.6C2775.91 107.288 2780.67 99.368 2786.81 92.84C2792.95 86.216 2800.35 81.176 2808.99 77.72C2817.72 74.168 2827.51 72.392 2838.36 72.392ZM2838.36 201.128C2852.19 201.128 2862.51 196.472 2869.32 187.16C2876.14 177.848 2879.55 164.744 2879.55 147.848C2879.55 130.952 2876.14 117.848 2869.32 108.536C2862.51 99.128 2852.19 94.424 2838.36 94.424C2824.35 94.424 2813.88 99.128 2806.97 108.536C2800.15 117.848 2796.75 130.952 2796.75 147.848C2796.75 164.744 2800.15 177.848 2806.97 187.16C2813.88 196.472 2824.35 201.128 2838.36 201.128Z" fill="black"/>
</svg>
