<svg width="314" height="76" viewBox="0 0 314 76" fill="none" xmlns="http://www.w3.org/2000/svg">
<rect width="314" height="76" fill="white"/>
<path d="M139.308 22.907L127.044 53H123.39L111.126 22.907H114.381C114.745 22.907 115.039 22.998 115.263 23.18C115.487 23.362 115.655 23.593 115.767 23.873L124.251 45.104C124.433 45.58 124.608 46.098 124.776 46.658C124.958 47.218 125.119 47.806 125.259 48.422C125.399 47.806 125.546 47.218 125.7 46.658C125.854 46.098 126.022 45.58 126.204 45.104L134.667 23.873C134.751 23.635 134.912 23.418 135.15 23.222C135.402 23.012 135.703 22.907 136.053 22.907H139.308ZM147.341 53H143.267V22.907H147.341V53ZM175.387 26.33H165.643V53H161.59V26.33H151.825V22.907H175.387V26.33ZM227.75 22.907L218.363 53H214.709L207.086 30.047C207.016 29.823 206.946 29.585 206.876 29.333C206.82 29.081 206.757 28.815 206.687 28.535C206.617 28.815 206.547 29.081 206.477 29.333C206.407 29.585 206.337 29.823 206.267 30.047L198.602 53H194.948L185.561 22.907H188.942C189.306 22.907 189.607 22.998 189.845 23.18C190.097 23.362 190.258 23.593 190.328 23.873L196.544 44.789C196.642 45.167 196.733 45.573 196.817 46.007C196.915 46.441 197.006 46.903 197.09 47.393C197.188 46.903 197.286 46.441 197.384 46.007C197.496 45.559 197.615 45.153 197.741 44.789L204.818 23.873C204.902 23.635 205.063 23.418 205.301 23.222C205.553 23.012 205.854 22.907 206.204 22.907H207.38C207.744 22.907 208.038 22.998 208.262 23.18C208.486 23.362 208.654 23.593 208.766 23.873L215.822 44.789C215.948 45.153 216.06 45.545 216.158 45.965C216.27 46.385 216.375 46.826 216.473 47.288C216.543 46.826 216.62 46.385 216.704 45.965C216.788 45.545 216.879 45.153 216.977 44.789L223.214 23.873C223.284 23.621 223.438 23.397 223.676 23.201C223.928 23.005 224.229 22.907 224.579 22.907H227.75ZM237.936 31.391C239.49 31.391 240.89 31.65 242.136 32.168C243.382 32.686 244.446 33.421 245.328 34.373C246.21 35.325 246.882 36.48 247.344 37.838C247.82 39.182 248.058 40.687 248.058 42.353C248.058 44.033 247.82 45.545 247.344 46.889C246.882 48.233 246.21 49.381 245.328 50.333C244.446 51.285 243.382 52.02 242.136 52.538C240.89 53.042 239.49 53.294 237.936 53.294C236.368 53.294 234.954 53.042 233.694 52.538C232.448 52.02 231.384 51.285 230.502 50.333C229.62 49.381 228.941 48.233 228.465 46.889C228.003 45.545 227.772 44.033 227.772 42.353C227.772 40.687 228.003 39.182 228.465 37.838C228.941 36.48 229.62 35.325 230.502 34.373C231.384 33.421 232.448 32.686 233.694 32.168C234.954 31.65 236.368 31.391 237.936 31.391ZM237.936 50.375C240.036 50.375 241.604 49.675 242.64 48.275C243.676 46.861 244.194 44.894 244.194 42.374C244.194 39.84 243.676 37.866 242.64 36.452C241.604 35.038 240.036 34.331 237.936 34.331C236.872 34.331 235.941 34.513 235.143 34.877C234.359 35.241 233.701 35.766 233.169 36.452C232.651 37.138 232.259 37.985 231.993 38.993C231.741 39.987 231.615 41.114 231.615 42.374C231.615 44.894 232.133 46.861 233.169 48.275C234.219 49.675 235.808 50.375 237.936 50.375ZM256.348 35.99C257.02 34.534 257.846 33.4 258.826 32.588C259.806 31.762 261.003 31.349 262.417 31.349C262.865 31.349 263.292 31.398 263.698 31.496C264.118 31.594 264.489 31.748 264.811 31.958L264.538 34.751C264.454 35.101 264.244 35.276 263.908 35.276C263.712 35.276 263.425 35.234 263.047 35.15C262.669 35.066 262.242 35.024 261.766 35.024C261.094 35.024 260.492 35.122 259.96 35.318C259.442 35.514 258.973 35.808 258.553 36.2C258.147 36.578 257.776 37.054 257.44 37.628C257.118 38.188 256.824 38.832 256.558 39.56V53H252.799V31.727H254.941C255.347 31.727 255.627 31.804 255.781 31.958C255.935 32.112 256.04 32.378 256.096 32.756L256.348 35.99ZM271.857 22.067V40.274H272.823C273.103 40.274 273.334 40.239 273.516 40.169C273.712 40.085 273.915 39.924 274.125 39.686L280.845 32.483C281.041 32.245 281.244 32.063 281.454 31.937C281.678 31.797 281.972 31.727 282.336 31.727H285.717L277.884 40.064C277.506 40.54 277.1 40.911 276.666 41.177C276.918 41.345 277.142 41.541 277.338 41.765C277.548 41.975 277.744 42.22 277.926 42.5L286.242 53H282.903C282.581 53 282.301 52.951 282.063 52.853C281.839 52.741 281.643 52.545 281.475 52.265L274.482 43.55C274.272 43.256 274.062 43.067 273.852 42.983C273.656 42.885 273.348 42.836 272.928 42.836H271.857V53H268.098V22.067H271.857ZM301.816 35.234C301.648 35.542 301.389 35.696 301.039 35.696C300.829 35.696 300.591 35.619 300.325 35.465C300.059 35.311 299.73 35.143 299.338 34.961C298.96 34.765 298.505 34.59 297.973 34.436C297.441 34.268 296.811 34.184 296.083 34.184C295.453 34.184 294.886 34.268 294.382 34.436C293.878 34.59 293.444 34.807 293.08 35.087C292.73 35.367 292.457 35.696 292.261 36.074C292.079 36.438 291.988 36.837 291.988 37.271C291.988 37.817 292.142 38.272 292.45 38.636C292.772 39 293.192 39.315 293.71 39.581C294.228 39.847 294.816 40.085 295.474 40.295C296.132 40.491 296.804 40.708 297.49 40.946C298.19 41.17 298.869 41.422 299.527 41.702C300.185 41.982 300.773 42.332 301.291 42.752C301.809 43.172 302.222 43.69 302.53 44.306C302.852 44.908 303.013 45.636 303.013 46.49C303.013 47.47 302.838 48.38 302.488 49.22C302.138 50.046 301.62 50.767 300.934 51.383C300.248 51.985 299.408 52.461 298.414 52.811C297.42 53.161 296.272 53.336 294.97 53.336C293.486 53.336 292.142 53.098 290.938 52.622C289.734 52.132 288.712 51.509 287.872 50.753L288.754 49.325C288.866 49.143 288.999 49.003 289.153 48.905C289.307 48.807 289.503 48.758 289.741 48.758C289.993 48.758 290.259 48.856 290.539 49.052C290.819 49.248 291.155 49.465 291.547 49.703C291.953 49.941 292.443 50.158 293.017 50.354C293.591 50.55 294.305 50.648 295.159 50.648C295.887 50.648 296.524 50.557 297.07 50.375C297.616 50.179 298.071 49.92 298.435 49.598C298.799 49.276 299.065 48.905 299.233 48.485C299.415 48.065 299.506 47.617 299.506 47.141C299.506 46.553 299.345 46.07 299.023 45.692C298.715 45.3 298.302 44.971 297.784 44.705C297.266 44.425 296.671 44.187 295.999 43.991C295.341 43.781 294.662 43.564 293.962 43.34C293.276 43.116 292.597 42.864 291.925 42.584C291.267 42.29 290.679 41.926 290.161 41.492C289.643 41.058 289.223 40.526 288.901 39.896C288.593 39.252 288.439 38.475 288.439 37.565C288.439 36.753 288.607 35.976 288.943 35.234C289.279 34.478 289.769 33.82 290.413 33.26C291.057 32.686 291.848 32.231 292.786 31.895C293.724 31.559 294.795 31.391 295.999 31.391C297.399 31.391 298.652 31.615 299.758 32.063C300.878 32.497 301.844 33.099 302.656 33.869L301.816 35.234Z" fill="#0C4579"/>
<path d="M139.308 22.907L140.234 23.2844L140.795 21.907H139.308V22.907ZM127.044 53V54H127.716L127.97 53.3774L127.044 53ZM123.39 53L122.464 53.3774L122.718 54H123.39V53ZM111.126 22.907V21.907H109.639L110.2 23.2844L111.126 22.907ZM115.767 23.873L116.696 23.5019L116.695 23.5016L115.767 23.873ZM124.251 45.104L125.185 44.7469L125.182 44.7399L125.18 44.7329L124.251 45.104ZM124.776 46.658L123.818 46.9453L123.821 46.9563L123.825 46.9671L124.776 46.658ZM125.259 48.422L124.284 48.6436H126.234L125.259 48.422ZM125.7 46.658L126.664 46.9232L126.664 46.9232L125.7 46.658ZM126.204 45.104L125.275 44.7337L125.27 44.7469L126.204 45.104ZM134.667 23.873L135.596 24.2433L135.603 24.2247L135.61 24.2058L134.667 23.873ZM135.15 23.222L135.786 23.9939L135.79 23.9902L135.15 23.222ZM138.382 22.5296L126.118 52.6226L127.97 53.3774L140.234 23.2844L138.382 22.5296ZM127.044 52H123.39V54H127.044V52ZM124.316 52.6226L112.052 22.5296L110.2 23.2844L122.464 53.3774L124.316 52.6226ZM111.126 23.907H114.381V21.907H111.126V23.907ZM114.381 23.907C114.577 23.907 114.629 23.9534 114.632 23.9561L115.894 22.4039C115.449 22.0426 114.913 21.907 114.381 21.907V23.907ZM114.632 23.9561C114.718 24.0259 114.787 24.1151 114.839 24.2444L116.695 23.5016C116.523 23.0709 116.256 22.6981 115.894 22.4039L114.632 23.9561ZM114.838 24.2441L123.322 45.4751L125.18 44.7329L116.696 23.5019L114.838 24.2441ZM123.317 45.4611C123.489 45.9111 123.656 46.4056 123.818 46.9453L125.734 46.3707C125.56 45.7904 125.377 45.2489 125.185 44.7469L123.317 45.4611ZM123.825 46.9671C123.997 47.4963 124.15 48.055 124.284 48.6436L126.234 48.2004C126.088 47.557 125.919 46.9397 125.727 46.3489L123.825 46.9671ZM126.234 48.6436C126.371 48.041 126.514 47.4675 126.664 46.9232L124.736 46.3928C124.578 46.9685 124.427 47.571 124.284 48.2004L126.234 48.6436ZM126.664 46.9232C126.811 46.3901 126.969 45.9032 127.138 45.4611L125.27 44.7469C125.075 45.2568 124.897 45.8059 124.736 46.3928L126.664 46.9232ZM127.133 45.4743L135.596 24.2433L133.738 23.5027L125.275 44.7337L127.133 45.4743ZM135.61 24.2058C135.621 24.1738 135.657 24.0999 135.786 23.9939L134.514 22.4501C134.167 22.7361 133.881 23.0962 133.724 23.5402L135.61 24.2058ZM135.79 23.9902C135.85 23.9405 135.92 23.907 136.053 23.907V21.907C135.486 21.907 134.954 22.0835 134.51 22.4538L135.79 23.9902ZM136.053 23.907H139.308V21.907H136.053V23.907ZM147.341 53V54H148.341V53H147.341ZM143.267 53H142.267V54H143.267V53ZM143.267 22.907V21.907H142.267V22.907H143.267ZM147.341 22.907H148.341V21.907H147.341V22.907ZM147.341 52H143.267V54H147.341V52ZM144.267 53V22.907H142.267V53H144.267ZM143.267 23.907H147.341V21.907H143.267V23.907ZM146.341 22.907V53H148.341V22.907H146.341ZM175.387 26.33V27.33H176.387V26.33H175.387ZM165.643 26.33V25.33H164.643V26.33H165.643ZM165.643 53V54H166.643V53H165.643ZM161.59 53H160.59V54H161.59V53ZM161.59 26.33H162.59V25.33H161.59V26.33ZM151.825 26.33H150.825V27.33H151.825V26.33ZM151.825 22.907V21.907H150.825V22.907H151.825ZM175.387 22.907H176.387V21.907H175.387V22.907ZM175.387 25.33H165.643V27.33H175.387V25.33ZM164.643 26.33V53H166.643V26.33H164.643ZM165.643 52H161.59V54H165.643V52ZM162.59 53V26.33H160.59V53H162.59ZM161.59 25.33H151.825V27.33H161.59V25.33ZM152.825 26.33V22.907H150.825V26.33H152.825ZM151.825 23.907H175.387V21.907H151.825V23.907ZM174.387 22.907V26.33H176.387V22.907H174.387ZM227.75 22.907L228.705 23.2048L229.11 21.907H227.75V22.907ZM218.363 53V54H219.099L219.318 53.2978L218.363 53ZM214.709 53L213.76 53.3152L213.988 54H214.709V53ZM207.086 30.047L206.132 30.3453L206.134 30.3538L206.137 30.3622L207.086 30.047ZM206.876 29.333L205.9 29.5499L205.906 29.5754L205.913 29.6006L206.876 29.333ZM206.687 28.535L207.657 28.2925H205.717L206.687 28.535ZM206.267 30.047L207.216 30.3637L207.219 30.3545L207.222 30.3453L206.267 30.047ZM198.602 53V54H199.322L199.551 53.3167L198.602 53ZM194.948 53L193.994 53.2978L194.213 54H194.948V53ZM185.561 22.907V21.907H184.202L184.607 23.2048L185.561 22.907ZM189.845 23.18L189.238 23.9744L189.249 23.9827L189.26 23.9907L189.845 23.18ZM190.328 23.873L189.358 24.1155L189.363 24.1368L189.37 24.1579L190.328 23.873ZM196.544 44.789L197.512 44.538L197.508 44.521L197.503 44.5041L196.544 44.789ZM196.817 46.007L195.835 46.197L195.838 46.2122L195.842 46.2273L196.817 46.007ZM197.09 47.393L196.105 47.562L198.071 47.5891L197.09 47.393ZM197.384 46.007L196.414 45.7645L196.411 45.7756L196.409 45.7867L197.384 46.007ZM197.741 44.789L198.686 45.1161L198.688 45.1095L197.741 44.789ZM204.818 23.873L203.875 23.5402L203.871 23.5525L204.818 23.873ZM205.301 23.222L205.937 23.9939L205.941 23.9902L205.301 23.222ZM208.262 23.18L208.893 22.4039L208.893 22.4039L208.262 23.18ZM208.766 23.873L209.714 23.5533L209.705 23.5272L209.695 23.5016L208.766 23.873ZM215.822 44.789L214.875 45.1087L214.877 45.1161L215.822 44.789ZM216.158 45.965L215.184 46.1922L215.188 46.2075L215.192 46.2227L216.158 45.965ZM216.473 47.288L215.495 47.4955L217.462 47.4378L216.473 47.288ZM216.977 44.789L216.019 44.5032L216.015 44.5161L216.012 44.529L216.977 44.789ZM223.214 23.873L224.172 24.1588L224.175 24.1497L224.178 24.1406L223.214 23.873ZM223.676 23.201L223.062 22.4116L223.051 22.4202L223.04 22.4291L223.676 23.201ZM226.796 22.6092L217.409 52.7022L219.318 53.2978L228.705 23.2048L226.796 22.6092ZM218.363 52H214.709V54H218.363V52ZM215.658 52.6848L208.035 29.7318L206.137 30.3622L213.76 53.3152L215.658 52.6848ZM208.041 29.7487C207.974 29.536 207.907 29.3082 207.84 29.0654L205.913 29.6006C205.985 29.8618 206.058 30.11 206.132 30.3453L208.041 29.7487ZM207.852 29.1161C207.794 28.8546 207.729 28.58 207.657 28.2925L205.717 28.7775C205.785 29.05 205.846 29.3074 205.9 29.5499L207.852 29.1161ZM205.717 28.2925C205.649 28.5649 205.581 28.8225 205.514 29.0654L207.441 29.6006C207.513 29.3395 207.585 29.0651 207.657 28.7775L205.717 28.2925ZM205.514 29.0654C205.446 29.3082 205.379 29.536 205.313 29.7487L207.222 30.3453C207.295 30.11 207.368 29.8618 207.441 29.6006L205.514 29.0654ZM205.319 29.7303L197.654 52.6833L199.551 53.3167L207.216 30.3637L205.319 29.7303ZM198.602 52H194.948V54H198.602V52ZM195.903 52.7022L186.516 22.6092L184.607 23.2048L193.994 53.2978L195.903 52.7022ZM185.561 23.907H188.942V21.907H185.561V23.907ZM188.942 23.907C189.135 23.907 189.209 23.9524 189.238 23.9744L190.453 22.3856C190.005 22.0436 189.477 21.907 188.942 21.907V23.907ZM189.26 23.9907C189.336 24.046 189.35 24.0827 189.358 24.1155L191.298 23.6305C191.167 23.1033 190.858 22.6779 190.431 22.3693L189.26 23.9907ZM189.37 24.1579L195.586 45.0739L197.503 44.5041L191.287 23.5881L189.37 24.1579ZM195.576 45.04C195.668 45.3954 195.755 45.7809 195.835 46.197L197.799 45.817C197.711 45.3651 197.616 44.9386 197.512 44.538L195.576 45.04ZM195.842 46.2273C195.935 46.6424 196.023 47.0872 196.105 47.562L198.076 47.224C197.989 46.7188 197.895 46.2396 197.793 45.7867L195.842 46.2273ZM198.071 47.5891C198.167 47.1062 198.264 46.6523 198.36 46.2273L196.409 45.7867C196.309 46.2297 196.209 46.6998 196.11 47.1969L198.071 47.5891ZM198.354 46.2495C198.461 45.8247 198.571 45.4475 198.686 45.1161L196.796 44.4619C196.659 44.8585 196.532 45.2933 196.414 45.7645L198.354 46.2495ZM198.688 45.1095L205.765 24.1935L203.871 23.5525L196.794 44.4685L198.688 45.1095ZM205.761 24.2058C205.772 24.1738 205.808 24.0999 205.937 23.9939L204.665 22.4501C204.318 22.7361 204.032 23.0962 203.875 23.5402L205.761 24.2058ZM205.941 23.9902C206.001 23.9405 206.071 23.907 206.204 23.907V21.907C205.637 21.907 205.105 22.0835 204.661 22.4538L205.941 23.9902ZM206.204 23.907H207.38V21.907H206.204V23.907ZM207.38 23.907C207.576 23.907 207.628 23.9534 207.632 23.9561L208.893 22.4039C208.448 22.0426 207.913 21.907 207.38 21.907V23.907ZM207.632 23.9561C207.717 24.0259 207.786 24.1151 207.838 24.2444L209.695 23.5016C209.522 23.0709 209.255 22.6981 208.893 22.4039L207.632 23.9561ZM207.819 24.1926L214.875 45.1086L216.77 44.4693L209.714 23.5533L207.819 24.1926ZM214.877 45.1161C214.991 45.4437 215.093 45.8021 215.184 46.1922L217.132 45.7378C217.027 45.2879 216.906 44.8623 216.767 44.4619L214.877 45.1161ZM215.192 46.2227C215.299 46.6247 215.4 47.0489 215.495 47.4955L217.451 47.0805C217.35 46.6031 217.241 46.1453 217.124 45.7073L215.192 46.2227ZM217.462 47.4378C217.53 46.9899 217.604 46.5644 217.685 46.1611L215.724 45.7689C215.636 46.2056 215.557 46.6621 215.484 47.1382L217.462 47.4378ZM217.685 46.1611C217.765 45.7597 217.851 45.3892 217.943 45.049L216.012 44.529C215.907 44.9168 215.811 45.3303 215.724 45.7689L217.685 46.1611ZM217.935 45.0748L224.172 24.1588L222.256 23.5872L216.019 44.5032L217.935 45.0748ZM224.178 24.1406C224.183 24.1198 224.203 24.0624 224.312 23.9729L223.04 22.4291C222.673 22.7316 222.385 23.1222 222.251 23.6054L224.178 24.1406ZM224.29 23.9904C224.349 23.9442 224.429 23.907 224.579 23.907V21.907C224.03 21.907 223.507 22.0658 223.062 22.4116L224.29 23.9904ZM224.579 23.907H227.75V21.907H224.579V23.907ZM242.136 32.168L241.752 33.0914L241.752 33.0914L242.136 32.168ZM245.328 34.373L244.594 35.0526L244.594 35.0526L245.328 34.373ZM247.344 37.838L246.397 38.1601L246.401 38.1718L247.344 37.838ZM247.344 46.889L246.401 46.5551L246.398 46.5639L247.344 46.889ZM245.328 50.333L244.594 49.6534L244.594 49.6534L245.328 50.333ZM242.136 52.538L242.511 53.4651L242.52 53.4614L242.136 52.538ZM233.694 52.538L233.31 53.4615L233.322 53.4665L233.694 52.538ZM230.502 50.333L231.235 49.6534L231.235 49.6534L230.502 50.333ZM228.465 46.889L227.519 47.2141L227.522 47.2228L228.465 46.889ZM228.465 37.838L227.521 37.5072L227.519 37.5129L228.465 37.838ZM230.502 34.373L231.235 35.0526L231.235 35.0526L230.502 34.373ZM233.694 32.168L233.314 31.2431L233.31 31.2446L233.694 32.168ZM242.64 48.275L243.444 48.8698L243.446 48.866L242.64 48.275ZM235.143 34.877L234.728 33.9672L234.722 33.97L235.143 34.877ZM233.169 36.452L232.379 35.8391L232.371 35.8494L233.169 36.452ZM231.993 38.993L231.026 38.7378L231.023 38.7473L231.993 38.993ZM233.169 48.275L232.362 48.8661L232.369 48.875L233.169 48.275ZM237.936 32.391C239.378 32.391 240.645 32.631 241.752 33.0914L242.52 31.2446C241.135 30.669 239.602 30.391 237.936 30.391V32.391ZM241.752 33.0914C242.871 33.5565 243.814 34.2103 244.594 35.0526L246.061 33.6934C245.078 32.6317 243.893 31.8155 242.52 31.2446L241.752 33.0914ZM244.594 35.0526C245.371 35.8913 245.975 36.9208 246.397 38.1601L248.291 37.5159C247.788 36.0392 247.048 34.7587 246.061 33.6934L244.594 35.0526ZM246.401 38.1718C246.833 39.3923 247.058 40.782 247.058 42.353H249.058C249.058 40.592 248.806 38.9717 248.286 37.5042L246.401 38.1718ZM247.058 42.353C247.058 43.9391 246.833 45.3356 246.401 46.5552L248.286 47.2228C248.807 45.7544 249.058 44.1269 249.058 42.353H247.058ZM246.398 46.5639C245.977 47.7889 245.373 48.8129 244.594 49.6534L246.061 51.0126C247.047 49.9491 247.787 48.6771 248.289 47.2141L246.398 46.5639ZM244.594 49.6534C243.814 50.4957 242.871 51.1495 241.752 51.6146L242.52 53.4614C243.893 52.8905 245.078 52.0743 246.061 51.0126L244.594 49.6534ZM241.761 51.611C240.651 52.0599 239.381 52.294 237.936 52.294V54.294C239.598 54.294 241.129 54.0241 242.511 53.465L241.761 51.611ZM237.936 52.294C236.475 52.294 235.19 52.0595 234.065 51.6095L233.322 53.4665C234.717 54.0245 236.26 54.294 237.936 54.294V52.294ZM234.078 51.6146C232.959 51.1495 232.016 50.4957 231.235 49.6534L229.768 51.0126C230.752 52.0743 231.937 52.8905 233.31 53.4614L234.078 51.6146ZM231.235 49.6534C230.455 48.8107 229.843 47.7836 229.407 46.5552L227.522 47.2228C228.039 48.6824 228.785 49.9513 229.768 51.0126L231.235 49.6534ZM229.41 46.5639C228.99 45.3416 228.772 43.942 228.772 42.353H226.772C226.772 44.124 227.015 45.7484 227.519 47.2141L229.41 46.5639ZM228.772 42.353C228.772 40.779 228.99 39.3862 229.41 38.1631L227.519 37.5129C227.016 38.9778 226.772 40.595 226.772 42.353H228.772ZM229.409 38.1688C229.844 36.9261 230.456 35.8935 231.235 35.0526L229.768 33.6934C228.783 34.7565 228.038 36.0339 227.521 37.5072L229.409 38.1688ZM231.235 35.0526C232.016 34.2103 232.959 33.5565 234.078 33.0914L233.31 31.2446C231.937 31.8155 230.752 32.6317 229.768 33.6934L231.235 35.0526ZM234.074 33.0929C235.197 32.6314 236.479 32.391 237.936 32.391V30.391C236.257 30.391 234.711 30.6686 233.314 31.2431L234.074 33.0929ZM237.936 51.375C240.279 51.375 242.179 50.5784 243.444 48.8698L241.836 47.6802C241.028 48.7716 239.792 49.375 237.936 49.375V51.375ZM243.446 48.866C244.652 47.2202 245.194 45.0169 245.194 42.374H243.194C243.194 44.7711 242.699 46.5018 241.833 47.684L243.446 48.866ZM245.194 42.374C245.194 39.7185 244.653 37.5076 243.446 35.861L241.833 37.043C242.699 38.2244 243.194 39.9615 243.194 42.374H245.194ZM243.446 35.861C242.184 34.1374 240.283 33.331 237.936 33.331V35.331C239.788 35.331 241.024 35.9386 241.833 37.043L243.446 35.861ZM237.936 33.331C236.759 33.331 235.681 33.5325 234.728 33.9672L235.558 35.7868C236.201 35.4935 236.985 35.331 237.936 35.331V33.331ZM234.722 33.97C233.792 34.4015 233.008 35.0276 232.379 35.8392L233.959 37.0648C234.394 36.5044 234.925 36.0805 235.564 35.784L234.722 33.97ZM232.371 35.8494C231.76 36.6587 231.318 37.6302 231.026 38.7378L232.96 39.2482C233.199 38.3398 233.542 37.6173 233.967 37.0546L232.371 35.8494ZM231.023 38.7473C230.747 39.8374 230.615 41.0492 230.615 42.374H232.615C232.615 41.1788 232.735 40.1366 232.962 39.2387L231.023 38.7473ZM230.615 42.374C230.615 45.0169 231.156 47.2202 232.362 48.866L233.975 47.684C233.109 46.5018 232.615 44.7711 232.615 42.374H230.615ZM232.369 48.875C233.649 50.582 235.569 51.375 237.936 51.375V49.375C236.046 49.375 234.789 48.768 233.969 47.675L232.369 48.875ZM256.348 35.99L255.351 36.0677L255.649 39.8909L257.256 36.4091L256.348 35.99ZM258.826 32.588L259.464 33.358L259.47 33.3526L258.826 32.588ZM263.698 31.496L263.463 32.4681L263.471 32.4698L263.698 31.496ZM264.811 31.958L265.806 32.0553L265.865 31.4517L265.357 31.1204L264.811 31.958ZM264.538 34.751L265.51 34.9844L265.526 34.9171L265.533 34.8483L264.538 34.751ZM263.047 35.15L262.83 36.1262L262.83 36.1262L263.047 35.15ZM259.96 35.318L259.614 34.3796L259.606 34.3827L259.96 35.318ZM258.553 36.2L259.234 36.9319L259.235 36.9311L258.553 36.2ZM257.44 37.628L256.577 37.1228L256.573 37.1295L257.44 37.628ZM256.558 39.56L255.619 39.2168L255.558 39.383V39.56H256.558ZM256.558 53V54H257.558V53H256.558ZM252.799 53H251.799V54H252.799V53ZM252.799 31.727V30.727H251.799V31.727H252.799ZM255.781 31.958L256.488 31.2509L256.488 31.2509L255.781 31.958ZM256.096 32.756L257.093 32.6783L257.09 32.6437L257.085 32.6095L256.096 32.756ZM257.256 36.4091C257.881 35.0545 258.625 34.0532 259.464 33.358L258.188 31.818C257.067 32.7468 256.159 34.0135 255.44 35.5709L257.256 36.4091ZM259.47 33.3526C260.251 32.6946 261.213 32.349 262.417 32.349V30.349C260.793 30.349 259.361 30.8294 258.181 31.8234L259.47 33.3526ZM262.417 32.349C262.792 32.349 263.139 32.3899 263.463 32.4681L263.933 30.5239C263.444 30.4061 262.938 30.349 262.417 30.349V32.349ZM263.471 32.4698C263.791 32.5446 264.051 32.6565 264.265 32.7956L265.357 31.1204C264.926 30.8395 264.445 30.6434 263.925 30.5222L263.471 32.4698ZM263.816 31.8607L263.543 34.6537L265.533 34.8483L265.806 32.0553L263.816 31.8607ZM263.566 34.5176C263.558 34.5493 263.571 34.4648 263.677 34.3765C263.79 34.2822 263.897 34.276 263.908 34.276V36.276C264.254 36.276 264.634 36.1823 264.958 35.913C265.274 35.6497 265.434 35.3027 265.51 34.9844L263.566 34.5176ZM263.908 34.276C263.825 34.276 263.625 34.2542 263.264 34.1738L262.83 36.1262C263.224 36.2138 263.599 36.276 263.908 36.276V34.276ZM263.264 34.1738C262.801 34.0709 262.299 34.024 261.766 34.024V36.024C262.185 36.024 262.537 36.0611 262.83 36.1262L263.264 34.1738ZM261.766 34.024C260.997 34.024 260.275 34.1361 259.614 34.3797L260.306 36.2563C260.709 36.1079 261.191 36.024 261.766 36.024V34.024ZM259.606 34.3827C258.962 34.6265 258.382 34.9915 257.871 35.4689L259.235 36.9311C259.564 36.6245 259.922 36.4015 260.314 36.2533L259.606 34.3827ZM257.871 35.4681C257.382 35.9241 256.953 36.481 256.577 37.1228L258.303 38.1332C258.599 37.627 258.912 37.2319 259.234 36.9319L257.871 35.4681ZM256.573 37.1295C256.217 37.7478 255.901 38.4453 255.619 39.2168L257.497 39.9032C257.747 39.2187 258.018 38.6282 258.307 38.1265L256.573 37.1295ZM255.558 39.56V53H257.558V39.56H255.558ZM256.558 52H252.799V54H256.558V52ZM253.799 53V31.727H251.799V53H253.799ZM252.799 32.727H254.941V30.727H252.799V32.727ZM254.941 32.727C255.011 32.727 255.067 32.7304 255.11 32.7352C255.153 32.74 255.179 32.7458 255.19 32.749C255.217 32.7563 255.154 32.7448 255.074 32.6651L256.488 31.2509C256.039 30.8018 255.406 30.727 254.941 30.727V32.727ZM255.074 32.6651C255.029 32.62 255.028 32.5966 255.045 32.6402C255.062 32.683 255.086 32.7656 255.107 32.9025L257.085 32.6095C257.019 32.1615 256.871 31.6339 256.488 31.2509L255.074 32.6651ZM255.099 32.8337L255.351 36.0677L257.345 35.9123L257.093 32.6783L255.099 32.8337ZM271.857 22.067H272.857V21.067H271.857V22.067ZM271.857 40.274H270.857V41.274H271.857V40.274ZM273.516 40.169L273.875 41.1023L273.892 41.0956L273.91 41.0881L273.516 40.169ZM274.125 39.686L273.394 39.0038L273.384 39.014L273.375 39.0244L274.125 39.686ZM280.845 32.483L281.576 33.1652L281.597 33.1426L281.617 33.1187L280.845 32.483ZM281.454 31.937L281.968 32.7945L281.976 32.7898L281.984 32.785L281.454 31.937ZM285.717 31.727L286.446 32.4117L288.028 30.727H285.717V31.727ZM277.884 40.064L277.155 39.3793L277.126 39.4096L277.101 39.4421L277.884 40.064ZM276.666 41.177L276.143 40.3244L274.81 41.1416L276.111 42.009L276.666 41.177ZM277.338 41.765L276.585 42.4235L276.607 42.4486L276.631 42.4721L277.338 41.765ZM277.926 42.5L277.087 43.045L277.113 43.0842L277.142 43.1209L277.926 42.5ZM286.242 53V54H288.309L287.026 52.3791L286.242 53ZM282.063 52.853L281.616 53.7474L281.648 53.7638L281.682 53.7777L282.063 52.853ZM281.475 52.265L282.332 51.7505L282.297 51.6922L282.255 51.6392L281.475 52.265ZM274.482 43.55L273.668 44.1312L273.684 44.154L273.702 44.1758L274.482 43.55ZM273.852 42.983L273.405 43.8774L273.442 43.896L273.48 43.9115L273.852 42.983ZM271.857 42.836V41.836H270.857V42.836H271.857ZM271.857 53V54H272.857V53H271.857ZM268.098 53H267.098V54H268.098V53ZM268.098 22.067V21.067H267.098V22.067H268.098ZM270.857 22.067V40.274H272.857V22.067H270.857ZM271.857 41.274H272.823V39.274H271.857V41.274ZM272.823 41.274C273.176 41.274 273.54 41.2311 273.875 41.1023L273.157 39.2357C273.128 39.2469 273.029 39.274 272.823 39.274V41.274ZM273.91 41.0881C274.292 40.9243 274.61 40.6471 274.875 40.3476L273.375 39.0244C273.219 39.2009 273.132 39.2457 273.122 39.2499L273.91 41.0881ZM274.856 40.3682L281.576 33.1652L280.114 31.8008L273.394 39.0038L274.856 40.3682ZM281.617 33.1187C281.758 32.947 281.878 32.8488 281.968 32.7945L280.939 31.0795C280.61 31.2772 280.323 31.543 280.073 31.8473L281.617 33.1187ZM281.984 32.785C281.999 32.7752 282.091 32.727 282.336 32.727V30.727C281.852 30.727 281.356 30.8188 280.924 31.089L281.984 32.785ZM282.336 32.727H285.717V30.727H282.336V32.727ZM284.988 31.0423L277.155 39.3793L278.613 40.7487L286.446 32.4117L284.988 31.0423ZM277.101 39.4421C276.782 39.8439 276.46 40.1301 276.143 40.3244L277.188 42.0296C277.739 41.6919 278.23 41.2361 278.667 40.6859L277.101 39.4421ZM276.111 42.009C276.291 42.129 276.448 42.267 276.585 42.4235L278.09 41.1065C277.835 40.815 277.544 40.561 277.22 40.3449L276.111 42.009ZM276.631 42.4721C276.786 42.6271 276.939 42.8163 277.087 43.045L278.764 41.955C278.549 41.6237 278.31 41.3229 278.045 41.0579L276.631 42.4721ZM277.142 43.1209L285.458 53.6209L287.026 52.3791L278.71 41.8791L277.142 43.1209ZM286.242 52H282.903V54H286.242V52ZM282.903 52C282.68 52 282.535 51.9658 282.443 51.9283L281.682 53.7777C282.067 53.9362 282.482 54 282.903 54V52ZM282.51 51.9586C282.501 51.9539 282.432 51.9161 282.332 51.7505L280.617 52.7795C280.854 53.1739 281.177 53.5281 281.616 53.7474L282.51 51.9586ZM282.255 51.6392L275.262 42.9242L273.702 44.1758L280.695 52.8908L282.255 51.6392ZM275.295 42.9688C275.035 42.6038 274.688 42.2403 274.223 42.0545L273.48 43.9115C273.453 43.9004 273.459 43.8965 273.498 43.931C273.536 43.9657 273.594 44.0279 273.668 44.1312L275.295 42.9688ZM274.299 42.0886C273.888 41.8829 273.386 41.836 272.928 41.836V43.836C273.102 43.836 273.229 43.8464 273.317 43.8603C273.409 43.875 273.428 43.8889 273.405 43.8774L274.299 42.0886ZM272.928 41.836H271.857V43.836H272.928V41.836ZM270.857 42.836V53H272.857V42.836H270.857ZM271.857 52H268.098V54H271.857V52ZM269.098 53V22.067H267.098V53H269.098ZM268.098 23.067H271.857V21.067H268.098V23.067ZM301.816 35.234L300.964 34.7099L300.95 34.7322L300.938 34.7551L301.816 35.234ZM299.338 34.961L298.878 35.8488L298.897 35.8588L298.917 35.868L299.338 34.961ZM297.973 34.436L297.672 35.3896L297.683 35.3932L297.695 35.3966L297.973 34.436ZM294.382 34.436L294.674 35.3923L294.686 35.3887L294.698 35.3847L294.382 34.436ZM293.08 35.087L292.47 34.2944L292.463 34.3002L292.455 34.3061L293.08 35.087ZM292.261 36.074L291.373 35.6137L291.37 35.6202L291.366 35.6268L292.261 36.074ZM292.45 38.636L291.686 39.2819L291.694 39.2903L291.701 39.2986L292.45 38.636ZM293.71 39.581L294.167 38.6914L294.167 38.6914L293.71 39.581ZM295.474 40.295L295.17 41.2477L295.179 41.2506L295.188 41.2534L295.474 40.295ZM297.49 40.946L297.162 41.8908L297.174 41.8947L297.185 41.8984L297.49 40.946ZM299.527 41.702L299.918 40.7818L299.918 40.7818L299.527 41.702ZM301.291 42.752L301.921 41.9752L301.921 41.9752L301.291 42.752ZM302.53 44.306L301.635 44.7532L301.642 44.7655L301.648 44.7777L302.53 44.306ZM302.488 49.22L303.409 49.6102L303.411 49.6046L302.488 49.22ZM300.934 51.383L301.593 52.1347L301.602 52.127L300.934 51.383ZM298.414 52.811L298.082 51.8678L298.082 51.8678L298.414 52.811ZM290.938 52.622L290.561 53.5483L290.57 53.552L290.938 52.622ZM287.872 50.753L287.021 50.2275L286.582 50.9378L287.203 51.4963L287.872 50.753ZM288.754 49.325L289.605 49.8505L289.606 49.8491L288.754 49.325ZM289.153 48.905L288.616 48.0613L288.616 48.0613L289.153 48.905ZM290.539 49.052L289.965 49.8712L289.965 49.8712L290.539 49.052ZM291.547 49.703L291.028 50.5578L291.034 50.5618L291.041 50.5657L291.547 49.703ZM293.017 50.354L292.694 51.3003L292.694 51.3003L293.017 50.354ZM297.07 50.375L297.386 51.3237L297.397 51.3201L297.408 51.3162L297.07 50.375ZM298.435 49.598L299.097 50.347L299.097 50.347L298.435 49.598ZM299.233 48.485L298.315 48.0874L298.31 48.1004L298.304 48.1136L299.233 48.485ZM299.023 45.692L298.237 46.3098L298.249 46.3254L298.262 46.3405L299.023 45.692ZM297.784 44.705L297.308 45.5847L297.318 45.5897L297.327 45.5946L297.784 44.705ZM295.999 43.991L295.695 44.9437L295.707 44.9475L295.719 44.951L295.999 43.991ZM293.962 43.34L293.651 44.2906L293.657 44.2924L293.962 43.34ZM291.925 42.584L291.517 43.497L291.529 43.5022L291.54 43.5071L291.925 42.584ZM288.901 39.896L287.999 40.3275L288.004 40.3394L288.01 40.3511L288.901 39.896ZM288.943 35.234L289.854 35.6465L289.857 35.6401L288.943 35.234ZM290.413 33.26L291.069 34.0147L291.078 34.0065L290.413 33.26ZM292.786 31.895L293.123 32.8364L293.123 32.8364L292.786 31.895ZM299.758 32.063L299.382 32.9898L299.389 32.9927L299.397 32.9954L299.758 32.063ZM302.656 33.869L303.508 34.3931L303.933 33.7019L303.344 33.1434L302.656 33.869ZM300.938 34.7551C300.931 34.7681 300.93 34.7666 300.938 34.7574C300.947 34.7476 300.963 34.7338 300.985 34.721C301.006 34.7081 301.026 34.701 301.039 34.6976C301.052 34.6945 301.053 34.696 301.039 34.696V36.696C301.364 36.696 301.699 36.6229 302.007 36.44C302.314 36.2572 302.538 35.9981 302.694 35.7129L300.938 34.7551ZM301.039 34.696C301.056 34.696 301.049 34.6991 301.011 34.6868C300.972 34.6743 300.911 34.6489 300.826 34.5996L299.824 36.3304C300.176 36.5344 300.59 36.696 301.039 36.696V34.696ZM300.826 34.5996C300.526 34.4259 300.168 34.244 299.759 34.054L298.917 35.868C299.291 36.042 299.592 36.1961 299.824 36.3304L300.826 34.5996ZM299.798 34.0732C299.348 33.8396 298.828 33.6426 298.251 33.4754L297.695 35.3966C298.181 35.5374 298.572 35.6904 298.878 35.8488L299.798 34.0732ZM298.274 33.4824C297.62 33.2759 296.884 33.184 296.083 33.184V35.184C296.738 35.184 297.262 35.2601 297.672 35.3896L298.274 33.4824ZM296.083 33.184C295.365 33.184 294.689 33.2797 294.066 33.4873L294.698 35.3847C295.083 35.2563 295.541 35.184 296.083 35.184V33.184ZM294.09 33.4796C293.488 33.6636 292.942 33.9312 292.47 34.2944L293.69 35.8796C293.945 35.6828 294.268 35.5164 294.674 35.3923L294.09 33.4796ZM292.455 34.3061C292.002 34.6687 291.637 35.1051 291.373 35.6137L293.149 36.5343C293.277 36.2869 293.458 36.0653 293.705 35.8679L292.455 34.3061ZM291.366 35.6268C291.11 36.1388 290.988 36.6923 290.988 37.271H292.988C292.988 36.9817 293.047 36.7372 293.155 36.5212L291.366 35.6268ZM290.988 37.271C290.988 38.0172 291.204 38.7114 291.686 39.2819L293.213 37.9901C293.08 37.8326 292.988 37.6168 292.988 37.271H290.988ZM291.701 39.2986C292.12 39.7722 292.646 40.1587 293.253 40.4706L294.167 38.6914C293.738 38.4713 293.424 38.2278 293.199 37.9734L291.701 39.2986ZM293.253 40.4706C293.828 40.7659 294.469 41.0239 295.17 41.2477L295.778 39.3423C295.163 39.1461 294.628 38.9281 294.167 38.6914L293.253 40.4706ZM295.188 41.2534C295.831 41.4449 296.489 41.6573 297.162 41.8908L297.818 40.0012C297.118 39.7587 296.432 39.5371 295.759 39.3366L295.188 41.2534ZM297.185 41.8984C297.856 42.1133 298.506 42.3546 299.135 42.6222L299.918 40.7818C299.231 40.4894 298.523 40.2267 297.795 39.9936L297.185 41.8984ZM299.135 42.6222C299.714 42.8683 300.22 43.1715 300.661 43.5288L301.921 41.9752C301.325 41.4925 300.656 41.0957 299.918 40.7818L299.135 42.6222ZM300.661 43.5288C301.065 43.856 301.389 44.2604 301.635 44.7532L303.424 43.8588C303.055 43.1196 302.553 42.488 301.921 41.9752L300.661 43.5288ZM301.648 44.7777C301.875 45.2026 302.013 45.76 302.013 46.49H304.013C304.013 45.512 303.828 44.6134 303.412 43.8343L301.648 44.7777ZM302.013 46.49C302.013 47.3482 301.86 48.1264 301.565 48.8354L303.411 49.6046C303.816 48.6336 304.013 47.5918 304.013 46.49H302.013ZM301.567 48.8299C301.276 49.517 300.846 50.1182 300.266 50.639L301.602 52.127C302.394 51.4158 303 50.575 303.409 49.6101L301.567 48.8299ZM300.274 50.6314C299.698 51.1372 298.974 51.5537 298.082 51.8678L298.746 53.7542C299.842 53.3683 300.798 52.8328 301.593 52.1346L300.274 50.6314ZM298.082 51.8678C297.216 52.1725 296.184 52.336 294.97 52.336V54.336C296.359 54.336 297.624 54.1495 298.746 53.7542L298.082 51.8678ZM294.97 52.336C293.593 52.336 292.377 52.1155 291.306 51.692L290.57 53.552C291.907 54.0805 293.378 54.336 294.97 54.336V52.336ZM291.315 51.6958C290.202 51.2429 289.283 50.6776 288.541 50.0097L287.203 51.4963C288.141 52.3404 289.266 53.0211 290.561 53.5482L291.315 51.6958ZM288.723 51.2785L289.605 49.8505L287.903 48.7995L287.021 50.2275L288.723 51.2785ZM289.606 49.8491C289.652 49.7742 289.684 49.7526 289.69 49.7487L288.616 48.0613C288.314 48.2534 288.08 48.5118 287.902 48.8009L289.606 49.8491ZM289.69 49.7487C289.667 49.7632 289.653 49.7661 289.658 49.7649C289.664 49.7634 289.69 49.758 289.741 49.758V47.758C289.369 47.758 288.972 47.8345 288.616 48.0613L289.69 49.7487ZM289.741 49.758C289.726 49.758 289.795 49.7518 289.965 49.8712L291.112 48.2328C290.723 47.9602 290.26 47.758 289.741 47.758V49.758ZM289.965 49.8712C290.268 50.083 290.623 50.3121 291.028 50.5578L292.066 48.8482C291.687 48.6179 291.37 48.413 291.112 48.2328L289.965 49.8712ZM291.041 50.5657C291.519 50.8457 292.073 51.0885 292.694 51.3003L293.34 49.4077C292.812 49.2275 292.387 49.0363 292.053 48.8403L291.041 50.5657ZM292.694 51.3003C293.405 51.5431 294.236 51.648 295.159 51.648V49.648C294.374 49.648 293.777 49.5569 293.34 49.4077L292.694 51.3003ZM295.159 51.648C295.967 51.648 296.715 51.5473 297.386 51.3237L296.754 49.4263C296.332 49.5667 295.806 49.648 295.159 49.648V51.648ZM297.408 51.3162C298.051 51.0854 298.622 50.7677 299.097 50.347L297.772 48.849C297.52 49.0723 297.181 49.2726 296.732 49.4338L297.408 51.3162ZM299.097 50.347C299.569 49.9295 299.931 49.4319 300.161 48.8564L298.304 48.1136C298.199 48.3781 298.028 48.6225 297.772 48.849L299.097 50.347ZM300.15 48.8826C300.389 48.3321 300.506 47.7482 300.506 47.141H298.506C298.506 47.4858 298.441 47.7979 298.315 48.0874L300.15 48.8826ZM300.506 47.141C300.506 46.3613 300.288 45.6346 299.784 45.0435L298.262 46.3405C298.402 46.5054 298.506 46.7447 298.506 47.141H300.506ZM299.809 45.0742C299.398 44.5514 298.865 44.1363 298.241 43.8154L297.327 45.5946C297.738 45.8057 298.031 46.0486 298.237 46.3098L299.809 45.0742ZM298.259 43.8253C297.669 43.5061 297.006 43.2432 296.279 43.031L295.719 44.951C296.335 45.1308 296.863 45.3439 297.308 45.5847L298.259 43.8253ZM296.303 43.0383C295.645 42.8284 294.966 42.6115 294.267 42.3876L293.657 44.2924C294.357 44.5165 295.037 44.7336 295.695 44.9437L296.303 43.0383ZM294.272 42.3894C293.612 42.1737 292.957 41.9309 292.309 41.6609L291.54 43.5071C292.236 43.7971 292.94 44.0583 293.651 44.2906L294.272 42.3894ZM292.333 41.671C291.754 41.4122 291.246 41.0962 290.803 40.7255L289.519 42.2585C290.112 42.7558 290.78 43.1678 291.517 43.497L292.333 41.671ZM290.803 40.7255C290.393 40.3816 290.055 39.9572 289.791 39.4409L288.01 40.3511C288.391 41.0948 288.893 41.7344 289.519 42.2585L290.803 40.7255ZM289.803 39.4645C289.575 38.987 289.439 38.3654 289.439 37.565H287.439C287.439 38.5846 287.611 39.517 287.999 40.3275L289.803 39.4645ZM289.439 37.565C289.439 36.8957 289.576 36.2593 289.854 35.6465L288.032 34.8215C287.637 35.6927 287.439 36.6103 287.439 37.565H289.439ZM289.857 35.6401C290.131 35.022 290.532 34.4818 291.069 34.0146L289.757 32.5054C289.006 33.1582 288.426 33.934 288.029 34.8279L289.857 35.6401ZM291.078 34.0065C291.613 33.5301 292.287 33.1358 293.123 32.8364L292.449 30.9536C291.408 31.3262 290.501 31.8419 289.747 32.5135L291.078 34.0065ZM293.123 32.8364C293.933 32.5463 294.887 32.391 295.999 32.391V30.391C294.703 30.391 293.515 30.5717 292.449 30.9536L293.123 32.8364ZM295.999 32.391C297.292 32.391 298.414 32.5978 299.382 32.9898L300.133 31.1361C298.889 30.6322 297.506 30.391 295.999 30.391V32.391ZM299.397 32.9954C300.404 33.3859 301.257 33.9206 301.968 34.5946L303.344 33.1434C302.431 32.2774 301.352 31.6081 300.119 31.1306L299.397 32.9954ZM301.804 33.3449L300.964 34.7099L302.668 35.7581L303.508 34.3931L301.804 33.3449Z" fill="#0C4579"/>
<line x1="101" y1="1.5" x2="314" y2="1.5" stroke="#0C4579" stroke-width="3"/>
<line x1="101" y1="74.5" x2="314" y2="74.5" stroke="#0C4579" stroke-width="3"/>
<path d="M37.9706 75.5C19.9546 75.5261 4.49654 62.6006 1.15931 45.0425C4.40775 39.6306 8.61163 34.855 13.5346 30.9497C15.9329 32.3623 19.0423 31.9102 21.0388 29.8773C32.8115 33.9249 42.6855 42.0762 48.9512 52.6173C46.7274 55.0674 46.7752 58.7794 49.0824 61.0458C46.245 66.4978 42.4677 71.3857 37.9706 75.5ZM0.502111 37.5953C0.539765 34.0002 1.0809 30.4897 2.10574 27.1056C4.83717 26.9995 7.55349 27.0996 10.3722 27.4398C6.63897 30.4372 3.34406 33.8373 0.502111 37.5953ZM74.173 28.0918C78.2138 42.8769 72.9048 59.071 59.9104 68.4333C59.419 65.8508 58.753 63.3137 57.9122 60.8393C60.4075 58.2896 60.297 54.2356 57.6577 51.9667C60.2012 42.5482 60.2773 32.5434 57.8949 23.1047C58.5447 22.6896 59.0955 22.1499 59.5101 21.5114C64.7747 22.9429 69.7086 25.1853 74.173 28.0918ZM22.8285 25.0571C30.5892 21.2155 39.155 19.3879 47.8703 19.7257C48.7608 21.8223 50.8024 23.4865 53.2503 23.9375C55.5261 32.6372 55.4989 41.8223 53.1831 50.4949C46.6162 39.2932 36.0073 30.0904 22.8458 25.5143C22.8462 25.3696 22.8412 25.2187 22.8285 25.0571ZM47.2118 1.64358C57.824 4.32643 66.6326 11.5279 71.4727 21.0856C67.8306 19.2397 64.0002 17.7954 60.0326 16.7783C59.1807 14.2604 56.7067 12.2995 53.8304 12.0416C52.0237 8.36934 49.811 4.88474 47.2118 1.64358ZM3.89978 22.3788C10.1068 8.85073 24.0697 -0.254914 39.9311 0.549343C43.6481 4.3207 46.795 8.65248 49.2315 13.4069C48.6998 13.8594 48.2625 14.4091 47.9472 15.0346C38.6797 14.689 29.2688 16.5777 20.6153 20.8811C17.6874 18.5574 13.2886 19.5254 11.4354 22.8405C8.87063 22.5124 6.39693 22.367 3.89978 22.3788ZM45.284 74.7919C48.5651 71.111 51.3206 67.0676 53.5117 62.7595L53.5844 62.7564C54.4798 65.4524 55.1609 68.2463 55.608 71.1159C52.4152 72.8181 48.9454 74.0713 45.284 74.7919Z" fill="#0C4579" stroke="#0C4579"/>
</svg>
