<svg width="80" height="64" viewBox="0 0 80 64" fill="none" xmlns="http://www.w3.org/2000/svg">
<mask id="mask0_2_3" style="mask-type:alpha" maskUnits="userSpaceOnUse" x="0" y="0" width="80" height="64">
<path d="M51.2241 0C52.1755 0 53.0818 0.405208 53.7162 1.11422L79.1481 29.5381C80.284 30.8077 80.284 32.7281 79.1481 33.9977L53.7162 62.4215C53.0818 63.1306 52.1755 63.5358 51.2241 63.5358H3.35055C0.460035 63.5358 -1.06892 60.1161 0.858462 57.962L24.2953 31.7679L0.858462 5.57376C-1.06892 3.41965 0.460035 0 3.35055 0H51.2241Z" fill="white"/>
</mask>
<g mask="url(#mask0_2_3)">
<path d="M52.7192 0L24.2953 31.7679L-4.1286 0H52.7192Z" fill="url(#paint0_linear_2_3)"/>
<g filter="url(#filter0_f_2_3)">
<path d="M52.7192 0.334381L-4.1286 63.8701H52.7192L81.1431 32.1023L52.7192 0.334381Z" fill="black" fill-opacity="0.24"/>
</g>
<g filter="url(#filter1_f_2_3)">
<path d="M52.7192 1.672L-4.1286 65.2078H52.7192L81.1431 33.4399L52.7192 1.672Z" fill="black" fill-opacity="0.32"/>
</g>
<path d="M-4.1286 63.5358L52.7192 0L81.1431 31.7679L52.7192 63.5358H-4.1286Z" fill="url(#paint1_linear_2_3)"/>
<path d="M-4.1286 63.5358L52.7192 0L66.9311 15.8839L24.2953 63.5358H-4.1286Z" fill="url(#paint2_linear_2_3)"/>
</g>
<defs>
<filter id="filter0_f_2_3" x="-4.9286" y="-0.465619" width="86.8717" height="65.1358" filterUnits="userSpaceOnUse" color-interpolation-filters="sRGB">
<feFlood flood-opacity="0" result="BackgroundImageFix"/>
<feBlend mode="normal" in="SourceGraphic" in2="BackgroundImageFix" result="shape"/>
<feGaussianBlur stdDeviation="0.4" result="effect1_foregroundBlur_2_3"/>
</filter>
<filter id="filter1_f_2_3" x="-12.1286" y="-6.328" width="101.272" height="79.5358" filterUnits="userSpaceOnUse" color-interpolation-filters="sRGB">
<feFlood flood-opacity="0" result="BackgroundImageFix"/>
<feBlend mode="normal" in="SourceGraphic" in2="BackgroundImageFix" result="shape"/>
<feGaussianBlur stdDeviation="4" result="effect1_foregroundBlur_2_3"/>
</filter>
<linearGradient id="paint0_linear_2_3" x1="35.9993" y1="37.6199" x2="24.2953" y2="1.66545e-06" gradientUnits="userSpaceOnUse">
<stop stop-color="#0D36A5"/>
<stop offset="1" stop-color="#1152D4"/>
</linearGradient>
<linearGradient id="paint1_linear_2_3" x1="38.5072" y1="0" x2="38.5072" y2="63.5358" gradientUnits="userSpaceOnUse">
<stop stop-color="#84CAFF"/>
<stop offset="1" stop-color="#61B1FB"/>
</linearGradient>
<linearGradient id="paint2_linear_2_3" x1="31.4013" y1="0" x2="31.4013" y2="63.5358" gradientUnits="userSpaceOnUse">
<stop stop-color="#3B90F5"/>
<stop offset="1" stop-color="#2A78EE"/>
</linearGradient>
</defs>
</svg>
