<svg width="100" height="35" viewBox="0 0 100 35" fill="none" xmlns="http://www.w3.org/2000/svg">
<path d="M0 0H34.0368V34.0368H0V0ZM30.4969 30.4969V3.53982H3.53982V30.4969H30.4969ZM6.60313 8.78148V19.0606C6.60313 23.7577 9.18993 26.5487 13.5466 26.5487C18.0395 26.5487 20.6263 23.7577 20.6263 19.0606V8.78148H17.0865V19.0606C17.0865 21.7155 15.9292 23.2131 13.6147 23.2131C11.1641 23.2131 10.0749 21.6474 10.0749 19.0606V8.78148H6.60313ZM25.1872 10.8918C26.4125 10.8918 27.3656 10.0068 27.3656 8.78148C27.3656 7.48809 26.4806 6.60313 25.1872 6.60313C23.9619 6.60313 23.0089 7.48809 23.0089 8.78148C23.0089 10.0068 23.9619 10.8918 25.1872 10.8918ZM23.4173 12.5255V26.3445H26.9571V12.5255H23.4173ZM44.5201 20.6944C48.3322 20.6944 50.8509 18.4479 50.8509 14.7039C50.8509 11.096 48.4003 8.78148 44.5201 8.78148H37.8489V26.4125H41.3887V20.7624H44.5201V20.6944ZM44.1116 17.9033H41.3206V11.6406H44.1116C46.1539 11.6406 47.243 12.7978 47.243 14.7039C47.243 16.7461 46.1539 17.9033 44.1116 17.9033ZM52.0082 19.469C52.0082 23.6215 54.663 26.5487 58.4071 26.5487C60.6535 26.5487 62.0831 25.7318 62.8999 24.4384V26.4125H66.4398V12.5255H62.8999V14.7039C62.015 13.2743 60.5854 12.3894 58.4071 12.3894C54.595 12.3894 52.0082 15.3846 52.0082 19.469ZM62.8999 19.469C62.8999 21.8516 61.4023 23.4173 59.224 23.4173C56.8414 23.4173 55.6161 21.7155 55.6161 19.469C55.6161 17.0184 56.9775 15.4527 59.224 15.4527C61.4704 15.4527 62.8999 17.0865 62.8999 19.469ZM75.2893 23.3492C73.9278 23.3492 73.5875 22.7366 73.5875 21.5112V15.5208H76.6508V12.5255H73.5875V8.71341H70.0477V12.5255H68.4139V15.5208H70.0477V21.5112C70.0477 24.7788 71.4772 26.3445 74.8809 26.3445H76.7189V23.3492H75.2893ZM82.1647 14.4997V7.9646H78.6249V26.4125H82.1647V19.0606C82.1647 16.678 83.3901 15.2485 85.5003 15.2485C87.5425 15.2485 88.6317 16.6099 88.6317 18.7202V26.3445H92.1715V18.3799C92.1715 14.772 89.5848 12.3894 86.3172 12.3894C84.275 12.3894 82.9816 13.1382 82.1647 14.4997ZM91.8993 7.89653V8.44112H93.0565V11.9809H93.7372V8.44112H94.8264V7.89653H91.8993ZM99.2512 7.89653L97.8216 11.1641L96.4602 7.89653H95.6433V11.9809H96.256V8.84956L97.6174 11.9809H98.0939L99.3873 8.84956V11.9809H100V7.89653H99.2512Z" fill="#FA4616"/>
</svg>
